<svg xmlns="http://www.w3.org/2000/svg" xmlns:xlink="http://www.w3.org/1999/xlink" width="3000" zoomAndPan="magnify" viewBox="0 0 2250 2250.000011" height="3000" preserveAspectRatio="xMidYMid meet" version="1.0"><defs><clipPath id="5db68d537d"><path d="M 384 382.996094 L 1858 382.996094 L 1858 1858 L 384 1858 Z M 384 382.996094 " clip-rule="nonzero"/></clipPath></defs><g clip-path="url(#5db68d537d)"><path fill="#444444" d="M 1336.59375 1467.316406 L 1699.785156 1830.386719 C 1735.742188 1866.332031 1794.140625 1866.324219 1830.097656 1830.363281 C 1866.046875 1794.390625 1866.035156 1735.996094 1830.078125 1700.035156 L 1467.128906 1337.222656 C 1540.144531 1237.910156 1583.300781 1115.269531 1583.300781 982.621094 C 1583.300781 651.675781 1314.621094 382.996094 983.675781 382.996094 C 652.726562 382.996094 384.046875 651.675781 384.046875 982.621094 C 384.046875 1313.570312 652.726562 1582.25 983.675781 1582.25 C 1115.558594 1582.25 1237.550781 1539.589844 1336.59375 1467.316406 Z M 983.675781 567.292969 C 1212.902344 567.292969 1399.015625 753.394531 1399.015625 982.621094 C 1399.015625 1211.847656 1212.902344 1397.960938 983.675781 1397.960938 C 754.449219 1397.960938 568.347656 1211.847656 568.347656 982.621094 C 568.347656 753.394531 754.449219 567.292969 983.675781 567.292969 Z M 983.675781 567.292969 " fill-opacity="1" fill-rule="evenodd"/></g></svg>