<svg xmlns="http://www.w3.org/2000/svg" xmlns:xlink="http://www.w3.org/1999/xlink" width="3000" zoomAndPan="magnify" viewBox="0 0 2250 1124.99995" height="1500" preserveAspectRatio="xMidYMid meet" version="1.0"><defs><g/><clipPath id="311f57d46b"><path d="M 137.535156 116.484375 L 520 116.484375 L 520 627 L 137.535156 627 Z M 137.535156 116.484375 " clip-rule="nonzero"/></clipPath><clipPath id="a115b282a6"><path d="M 137.535156 498 L 520 498 L 520 1008.234375 L 137.535156 1008.234375 Z M 137.535156 498 " clip-rule="nonzero"/></clipPath><clipPath id="66613bfa1b"><path d="M 137.535156 371 L 520 371 L 520 754 L 137.535156 754 Z M 137.535156 371 " clip-rule="nonzero"/></clipPath></defs><g clip-path="url(#311f57d46b)"><path fill="#d86634" d="M 519.957031 116.496094 L 519.957031 371.273438 L 137.609375 626.058594 L 137.609375 371.273438 L 519.957031 116.496094 " fill-opacity="1" fill-rule="nonzero"/></g><g clip-path="url(#a115b282a6)"><path fill="#adc178" d="M 519.957031 498.671875 L 519.957031 753.449219 L 137.609375 1008.226562 L 137.609375 753.449219 L 519.957031 498.671875 " fill-opacity="1" fill-rule="nonzero"/></g><g clip-path="url(#66613bfa1b)"><path fill="#fcd266" d="M 137.609375 626.058594 L 519.957031 753.449219 L 519.957031 498.671875 L 137.609375 371.273438 " fill-opacity="1" fill-rule="nonzero"/></g><g fill="#adc178" fill-opacity="1"><g transform="translate(646.645777, 752.476146)"><g><path d="M 248.6875 -284.359375 C 216.070312 -302.359375 187.703125 -311.359375 163.578125 -311.359375 C 147.273438 -311.359375 134.617188 -308.128906 125.609375 -301.671875 C 116.609375 -295.222656 112.109375 -285.539062 112.109375 -272.625 C 112.109375 -260.738281 118.644531 -250.289062 131.71875 -241.28125 C 144.800781 -232.28125 162.21875 -223.707031 183.96875 -215.5625 C 201.632812 -209.101562 216.75 -201.710938 229.3125 -193.390625 C 241.882812 -185.066406 252.332031 -173.597656 260.65625 -158.984375 C 268.976562 -144.378906 273.140625 -125.867188 273.140625 -103.453125 C 273.140625 -84.085938 268.128906 -66.164062 258.109375 -49.6875 C 248.085938 -33.207031 233.394531 -20.125 214.03125 -10.4375 C 194.664062 -0.757812 171.5625 4.078125 144.71875 4.078125 C 122.300781 4.078125 100.050781 0.765625 77.96875 -5.859375 C 55.882812 -12.484375 35.332031 -22.59375 16.3125 -36.1875 L 48.921875 -93.765625 C 61.828125 -84.253906 76.601562 -76.441406 93.25 -70.328125 C 109.894531 -64.210938 124.84375 -61.15625 138.09375 -61.15625 C 153.726562 -61.15625 167.316406 -64.46875 178.859375 -71.09375 C 190.410156 -77.71875 196.1875 -88.503906 196.1875 -103.453125 C 196.1875 -122.816406 178.015625 -139.628906 141.671875 -153.890625 C 120.265625 -162.390625 102.425781 -170.546875 88.15625 -178.359375 C 73.882812 -186.171875 61.566406 -197.378906 51.203125 -211.984375 C 40.847656 -226.597656 35.671875 -244.945312 35.671875 -267.03125 C 35.671875 -299.300781 46.285156 -325.285156 67.515625 -344.984375 C 88.753906 -364.691406 117.039062 -375.394531 152.375 -377.09375 C 180.226562 -377.09375 203.492188 -373.953125 222.171875 -367.671875 C 240.859375 -361.390625 259.035156 -352.472656 276.703125 -340.921875 Z M 248.6875 -284.359375 "/></g></g></g><g fill="#adc178" fill-opacity="1"><g transform="translate(1018.64435, 752.476146)"><g><path d="M 122.296875 -375.0625 L 122.296875 0 L 48.40625 0 L 48.40625 -375.0625 Z M 122.296875 -375.0625 "/></g></g></g><g fill="#adc178" fill-opacity="1"><g transform="translate(1264.265414, 752.476146)"><g><path d="M 329.703125 -31.078125 C 320.191406 -23.265625 305.070312 -15.453125 284.34375 -7.640625 C 263.625 0.171875 241.035156 4.078125 216.578125 4.078125 C 177.503906 4.078125 143.53125 -4.410156 114.65625 -21.390625 C 85.78125 -38.378906 63.695312 -61.226562 48.40625 -89.9375 C 33.125 -118.644531 25.484375 -150.15625 25.484375 -184.46875 C 25.484375 -222.175781 33.125 -255.804688 48.40625 -285.359375 C 63.695312 -314.921875 85.097656 -337.941406 112.609375 -354.421875 C 140.128906 -370.898438 171.898438 -379.140625 207.921875 -379.140625 C 230.679688 -379.140625 251.742188 -376.082031 271.109375 -369.96875 C 290.472656 -363.851562 307.457031 -356.207031 322.0625 -347.03125 L 293.015625 -277.21875 C 266.179688 -297.601562 238.664062 -307.796875 210.46875 -307.796875 C 191.4375 -307.796875 173.597656 -302.53125 156.953125 -292 C 140.304688 -281.46875 127.054688 -267.113281 117.203125 -248.9375 C 107.347656 -230.757812 102.421875 -210.628906 102.421875 -188.546875 C 102.421875 -164.429688 107.007812 -143.285156 116.1875 -125.109375 C 125.363281 -106.929688 138.441406 -92.742188 155.421875 -82.546875 C 172.410156 -72.359375 192.285156 -67.265625 215.046875 -67.265625 C 233.390625 -67.265625 249.863281 -70.238281 264.46875 -76.1875 C 279.082031 -82.132812 290.632812 -89.179688 299.125 -97.328125 Z M 329.703125 -31.078125 "/></g></g></g><g fill="#adc178" fill-opacity="1"><g transform="translate(1694.356867, 752.476146)"><g><path d="M 233.90625 -73.375 L 109.5625 -73.375 L 78.984375 0 L 6.109375 0 L 175.296875 -389.84375 L 179.375 -389.84375 L 348.5625 0 L 262.953125 0 Z M 209.4375 -135.546875 L 173.265625 -226.765625 L 135.546875 -135.546875 Z M 209.4375 -135.546875 "/></g></g></g></svg>