<svg xmlns="http://www.w3.org/2000/svg" xmlns:xlink="http://www.w3.org/1999/xlink" width="960" zoomAndPan="magnify" viewBox="0 0 720 599.999999" height="800" preserveAspectRatio="xMidYMid meet" version="1.0"><path fill="#f5f5f5" d="M 472.183594 425.417969 C 410.164062 454.972656 309.617188 454.980469 247.597656 425.417969 C 185.578125 395.851562 185.585938 347.933594 247.597656 318.378906 C 309.605469 288.824219 410.164062 288.824219 472.183594 318.378906 C 534.203125 347.933594 534.191406 395.859375 472.183594 425.417969 Z M 472.183594 425.417969 " fill-opacity="1" fill-rule="nonzero"/><path fill="#ebebeb" d="M 227.128906 393.71875 C 227.128906 394.042969 227.164062 394.363281 227.230469 394.683594 C 227.296875 395.003906 227.394531 395.324219 227.527344 395.640625 C 227.660156 395.957031 227.824219 396.269531 228.019531 396.578125 C 228.21875 396.886719 228.445312 397.191406 228.703125 397.488281 C 228.964844 397.789062 229.253906 398.078125 229.574219 398.363281 C 229.890625 398.648438 230.238281 398.925781 230.617188 399.195312 C 230.992188 399.460938 231.394531 399.722656 231.824219 399.96875 C 232.253906 400.21875 232.710938 400.457031 233.1875 400.6875 C 233.667969 400.914062 234.167969 401.132812 234.691406 401.335938 C 235.214844 401.542969 235.757812 401.734375 236.320312 401.914062 C 236.886719 402.089844 237.464844 402.257812 238.0625 402.410156 C 238.660156 402.5625 239.273438 402.699219 239.898438 402.824219 C 240.523438 402.945312 241.160156 403.054688 241.808594 403.148438 C 242.457031 403.242188 243.113281 403.320312 243.777344 403.382812 C 244.441406 403.445312 245.109375 403.496094 245.785156 403.527344 C 246.460938 403.558594 247.136719 403.574219 247.8125 403.574219 C 248.488281 403.574219 249.164062 403.558594 249.839844 403.527344 C 250.515625 403.496094 251.183594 403.445312 251.847656 403.382812 C 252.511719 403.320312 253.167969 403.242188 253.816406 403.148438 C 254.464844 403.054688 255.101562 402.945312 255.726562 402.824219 C 256.351562 402.699219 256.964844 402.5625 257.5625 402.410156 C 258.160156 402.257812 258.738281 402.089844 259.304688 401.914062 C 259.867188 401.734375 260.410156 401.542969 260.933594 401.335938 C 261.457031 401.132812 261.957031 400.914062 262.4375 400.6875 C 262.914062 400.457031 263.371094 400.21875 263.800781 399.96875 C 264.230469 399.722656 264.632812 399.460938 265.007812 399.195312 C 265.386719 398.925781 265.734375 398.648438 266.050781 398.363281 C 266.371094 398.078125 266.660156 397.789062 266.921875 397.488281 C 267.179688 397.191406 267.40625 396.886719 267.605469 396.578125 C 267.800781 396.269531 267.964844 395.957031 268.097656 395.640625 C 268.230469 395.324219 268.328125 395.003906 268.394531 394.683594 C 268.460938 394.363281 268.496094 394.042969 268.496094 393.71875 C 268.496094 393.394531 268.460938 393.074219 268.394531 392.753906 C 268.328125 392.429688 268.230469 392.113281 268.097656 391.796875 C 267.964844 391.480469 267.800781 391.167969 267.605469 390.859375 C 267.40625 390.546875 267.179688 390.246094 266.921875 389.945312 C 266.660156 389.648438 266.371094 389.355469 266.050781 389.074219 C 265.734375 388.789062 265.386719 388.511719 265.007812 388.242188 C 264.632812 387.976562 264.230469 387.714844 263.800781 387.464844 C 263.371094 387.21875 262.914062 386.976562 262.4375 386.75 C 261.957031 386.523438 261.457031 386.304688 260.933594 386.101562 C 260.410156 385.894531 259.867188 385.703125 259.304688 385.523438 C 258.738281 385.34375 258.160156 385.179688 257.5625 385.027344 C 256.964844 384.875 256.351562 384.738281 255.726562 384.613281 C 255.101562 384.488281 254.464844 384.382812 253.816406 384.289062 C 253.167969 384.195312 252.511719 384.117188 251.847656 384.050781 C 251.183594 383.988281 250.515625 383.941406 249.839844 383.910156 C 249.164062 383.878906 248.488281 383.863281 247.8125 383.863281 C 247.136719 383.863281 246.460938 383.878906 245.785156 383.910156 C 245.109375 383.941406 244.441406 383.988281 243.777344 384.050781 C 243.113281 384.117188 242.457031 384.195312 241.808594 384.289062 C 241.160156 384.382812 240.523438 384.488281 239.898438 384.613281 C 239.273438 384.738281 238.660156 384.875 238.0625 385.027344 C 237.464844 385.179688 236.886719 385.34375 236.320312 385.523438 C 235.757812 385.703125 235.214844 385.894531 234.691406 386.101562 C 234.167969 386.304688 233.667969 386.523438 233.1875 386.75 C 232.710938 386.976562 232.253906 387.21875 231.824219 387.464844 C 231.394531 387.714844 230.992188 387.976562 230.617188 388.242188 C 230.238281 388.511719 229.890625 388.789062 229.574219 389.074219 C 229.253906 389.355469 228.964844 389.648438 228.703125 389.945312 C 228.445312 390.246094 228.21875 390.546875 228.019531 390.859375 C 227.824219 391.167969 227.660156 391.480469 227.527344 391.796875 C 227.394531 392.113281 227.296875 392.429688 227.230469 392.753906 C 227.164062 393.074219 227.128906 393.394531 227.128906 393.71875 Z M 227.128906 393.71875 " fill-opacity="1" fill-rule="nonzero"/><path fill="#adc178" d="M 476.890625 395.132812 L 469.574219 390.910156 C 467.53125 389.242188 465.746094 387.335938 464.21875 385.1875 C 462.691406 383.039062 461.476562 380.722656 460.574219 378.246094 C 458.3125 372.019531 458.628906 367.285156 460.25 364.910156 C 462.238281 361.984375 467.394531 362.496094 467.601562 368.652344 C 468.035156 380.785156 471.570312 389.199219 476.890625 395.132812 Z M 476.890625 395.132812 " fill-opacity="1" fill-rule="nonzero"/><path fill="#000000" d="M 476.890625 395.132812 L 469.574219 390.910156 C 467.53125 389.242188 465.746094 387.335938 464.21875 385.1875 C 462.691406 383.039062 461.476562 380.722656 460.574219 378.246094 C 458.3125 372.019531 458.628906 367.285156 460.25 364.910156 C 462.238281 361.984375 467.394531 362.496094 467.601562 368.652344 C 468.035156 380.785156 471.570312 389.199219 476.890625 395.132812 Z M 476.890625 395.132812 " fill-opacity="0.2" fill-rule="nonzero"/><path fill="#ffffff" d="M 476.890625 395.582031 C 477.109375 395.578125 477.25 395.472656 477.3125 395.265625 C 477.378906 395.054688 477.320312 394.886719 477.140625 394.761719 C 460.222656 383.0625 463.496094 366.746094 463.535156 366.582031 C 463.558594 366.460938 463.539062 366.34375 463.46875 366.238281 C 463.398438 366.128906 463.300781 366.0625 463.179688 366.039062 C 463.054688 366.011719 462.9375 366.035156 462.832031 366.101562 C 462.726562 366.171875 462.660156 366.269531 462.632812 366.394531 C 462.632812 366.566406 459.175781 383.441406 476.601562 395.5 C 476.6875 395.558594 476.785156 395.585938 476.890625 395.582031 Z M 476.890625 395.582031 " fill-opacity="1" fill-rule="nonzero"/><path fill="#adc178" d="M 491.550781 403.601562 C 491.550781 403.601562 494.097656 401.53125 493.484375 398.722656 C 492.875 395.914062 491.226562 393.898438 494.042969 390.28125 C 496.859375 386.664062 497.644531 381.839844 494.277344 379.226562 C 491.710938 377.203125 487.707031 380.066406 486.265625 374.726562 C 485.207031 370.824219 485.566406 362.171875 480.589844 359.292969 C 475.613281 356.414062 472.488281 360.75 473.269531 366.621094 C 473.957031 371.867188 474.925781 376.914062 474.171875 378.320312 C 472.714844 381.019531 470.21875 380.648438 470.335938 385.582031 C 470.4375 390.171875 474.785156 393.96875 474.785156 393.96875 Z M 491.550781 403.601562 " fill-opacity="1" fill-rule="nonzero"/><path fill="#ffffff" d="M 483.1875 399.199219 C 483.304688 399.199219 483.402344 399.160156 483.488281 399.085938 C 483.574219 399.011719 483.625 398.917969 483.640625 398.804688 C 484.925781 388.136719 481.839844 369.722656 479.320312 364.253906 C 479.273438 364.125 479.1875 364.035156 479.0625 363.984375 C 478.933594 363.933594 478.8125 363.9375 478.6875 364 C 478.578125 364.050781 478.5 364.136719 478.457031 364.25 C 478.414062 364.367188 478.417969 364.484375 478.472656 364.59375 C 480.964844 369.996094 483.945312 388.460938 482.710938 398.660156 C 482.699219 398.78125 482.730469 398.890625 482.808594 398.988281 C 482.886719 399.085938 482.984375 399.140625 483.109375 399.15625 Z M 483.1875 399.199219 " fill-opacity="1" fill-rule="nonzero"/><path fill="#ffffff" d="M 483.433594 390.890625 C 483.503906 390.894531 483.570312 390.878906 483.628906 390.847656 C 486.753906 389.328125 488.734375 383.898438 488.8125 383.648438 C 488.859375 383.53125 488.859375 383.414062 488.804688 383.296875 C 488.753906 383.183594 488.667969 383.101562 488.546875 383.058594 C 488.429688 383.015625 488.3125 383.023438 488.199219 383.078125 C 488.085938 383.132812 488.007812 383.222656 487.96875 383.339844 C 487.96875 383.394531 486.035156 388.652344 483.234375 390.011719 C 483.019531 390.113281 482.9375 390.285156 482.992188 390.515625 C 483.046875 390.75 483.191406 390.867188 483.433594 390.867188 Z M 483.433594 390.890625 " fill-opacity="1" fill-rule="nonzero"/><path fill="#ffffff" d="M 483.488281 394.492188 C 483.691406 394.492188 483.828125 394.398438 483.902344 394.203125 C 483.945312 394.089844 483.945312 393.976562 483.898438 393.863281 C 483.851562 393.746094 483.769531 393.667969 483.65625 393.621094 C 478.402344 391.511719 475.125 385.257812 475.089844 385.1875 C 475.03125 385.074219 474.945312 385 474.824219 384.964844 C 474.707031 384.925781 474.59375 384.9375 474.480469 384.992188 C 474.371094 385.050781 474.296875 385.136719 474.257812 385.257812 C 474.222656 385.375 474.230469 385.488281 474.289062 385.601562 C 474.433594 385.871094 477.753906 392.222656 483.289062 394.457031 C 483.351562 394.484375 483.417969 394.5 483.488281 394.492188 Z M 483.488281 394.492188 " fill-opacity="1" fill-rule="nonzero"/><path fill="#adc178" d="M 299.769531 346.074219 C 299.769531 346.074219 303.703125 339.699219 304.089844 332.78125 C 304.476562 325.859375 302.957031 322.976562 300.867188 322.148438 C 298.78125 321.324219 298.617188 323.871094 297.546875 325.371094 C 296.476562 326.875 294.289062 326.019531 293.476562 321.332031 C 292.667969 316.640625 289.714844 308.730469 283.578125 307.191406 C 276.828125 305.519531 280.445312 313.4375 282.148438 316.523438 C 283.847656 319.613281 285.164062 323.824219 284.046875 324.96875 C 282.929688 326.109375 281.195312 323.996094 279.546875 325.957031 C 277.539062 328.324219 283.777344 336.847656 287.359375 338.910156 Z M 299.769531 346.074219 " fill-opacity="1" fill-rule="nonzero"/><path fill="#ffffff" d="M 294.378906 343.398438 C 294.503906 343.394531 294.605469 343.347656 294.691406 343.253906 C 294.777344 343.164062 294.816406 343.054688 294.808594 342.929688 C 294.503906 337.363281 293.5 331.929688 291.792969 326.621094 C 290.082031 321.3125 287.730469 316.3125 284.730469 311.613281 C 284.660156 311.507812 284.5625 311.445312 284.4375 311.425781 C 284.3125 311.40625 284.199219 311.4375 284.101562 311.511719 C 284.003906 311.585938 283.945312 311.683594 283.925781 311.804688 C 283.90625 311.921875 283.929688 312.035156 284 312.132812 C 286.945312 316.765625 289.257812 321.691406 290.9375 326.917969 C 292.613281 332.144531 293.601562 337.496094 293.902344 342.976562 C 293.910156 343.101562 293.957031 343.203125 294.050781 343.285156 C 294.144531 343.371094 294.253906 343.40625 294.378906 343.398438 Z M 294.378906 343.398438 " fill-opacity="1" fill-rule="nonzero"/><path fill="#ffffff" d="M 293.867188 338.082031 C 293.941406 338.078125 294.015625 338.0625 294.082031 338.027344 C 296.601562 336.632812 297.996094 332.492188 298.050781 332.320312 C 298.09375 332.203125 298.085938 332.085938 298.03125 331.972656 C 297.976562 331.863281 297.890625 331.785156 297.769531 331.746094 C 297.652344 331.707031 297.539062 331.714844 297.429688 331.769531 C 297.316406 331.828125 297.242188 331.914062 297.203125 332.03125 C 297.203125 332.03125 295.855469 336.019531 293.605469 337.234375 C 293.5 337.296875 293.429688 337.386719 293.394531 337.507812 C 293.363281 337.625 293.375 337.738281 293.433594 337.847656 C 293.523438 338.019531 293.667969 338.097656 293.867188 338.082031 Z M 293.867188 338.082031 " fill-opacity="1" fill-rule="nonzero"/><path fill="#ffffff" d="M 293.425781 335.351562 C 293.65625 335.351562 293.800781 335.238281 293.855469 335.011719 C 293.886719 334.890625 293.871094 334.777344 293.808594 334.671875 C 293.746094 334.566406 293.652344 334.5 293.53125 334.472656 C 287.035156 332.824219 284.785156 329.421875 284.765625 329.386719 C 284.699219 329.28125 284.605469 329.214844 284.484375 329.1875 C 284.359375 329.160156 284.246094 329.179688 284.140625 329.246094 C 284.035156 329.3125 283.96875 329.410156 283.941406 329.53125 C 283.914062 329.652344 283.933594 329.765625 284 329.871094 C 284.101562 330.027344 286.441406 333.597656 293.308594 335.34375 Z M 293.425781 335.351562 " fill-opacity="1" fill-rule="nonzero"/><path fill="#adc178" d="M 397.6875 332.085938 C 397.6875 332.085938 406.320312 329.980469 406.769531 313.816406 C 407.246094 296.375 404.65625 276.015625 414.871094 274.371094 C 425.085938 272.722656 430.753906 285.167969 430.628906 299.703125 C 430.511719 312.429688 425.382812 340.058594 397.726562 345.476562 Z M 397.6875 332.085938 " fill-opacity="1" fill-rule="nonzero"/><path fill="#000000" d="M 397.6875 332.085938 C 397.6875 332.085938 406.320312 329.980469 406.769531 313.816406 C 407.246094 296.375 404.65625 276.015625 414.871094 274.371094 C 425.085938 272.722656 430.753906 285.167969 430.628906 299.703125 C 430.511719 312.429688 425.382812 340.058594 397.726562 345.476562 Z M 397.6875 332.085938 " fill-opacity="0.2" fill-rule="nonzero"/><path fill="#ffffff" d="M 397.6875 343.824219 L 397.769531 343.824219 C 403.988281 342.6875 409.054688 339.257812 412.828125 333.644531 C 424.003906 316.964844 420.488281 285.828125 419.324219 280.390625 C 419.296875 280.269531 419.234375 280.175781 419.128906 280.109375 C 419.027344 280.039062 418.914062 280.015625 418.792969 280.039062 C 418.671875 280.070312 418.578125 280.136719 418.511719 280.238281 C 418.445312 280.34375 418.421875 280.457031 418.445312 280.578125 C 419.585938 285.980469 423.085938 316.722656 412.082031 333.140625 C 411.28125 334.414062 410.355469 335.589844 409.308594 336.671875 C 408.265625 337.75 407.117188 338.714844 405.875 339.554688 C 404.628906 340.398438 403.308594 341.105469 401.917969 341.671875 C 400.523438 342.242188 399.089844 342.660156 397.609375 342.929688 C 397.484375 342.953125 397.386719 343.015625 397.316406 343.121094 C 397.246094 343.226562 397.222656 343.339844 397.25 343.460938 C 397.269531 343.566406 397.320312 343.65625 397.402344 343.722656 C 397.488281 343.792969 397.582031 343.824219 397.6875 343.824219 Z M 397.6875 343.824219 " fill-opacity="1" fill-rule="nonzero"/><path fill="#adc178" d="M 397.6875 385.304688 C 406.609375 386.507812 421.089844 386.492188 429.449219 379.902344 C 437.8125 373.316406 436.066406 367.644531 432.851562 365.277344 C 429.640625 362.910156 426.847656 360.210938 432.375 354.957031 C 437.902344 349.699219 446.777344 341.257812 449.65625 328.59375 C 452.535156 315.929688 451.113281 308.011719 445.460938 305.375 C 439.980469 302.820312 438.53125 306.886719 435.175781 315.273438 C 431.816406 323.664062 424.265625 316.472656 417.804688 319.089844 C 411.34375 321.710938 411.601562 326.894531 411.199219 331.347656 C 410.792969 335.804688 408.660156 337.035156 404.996094 337.035156 C 401.335938 337.035156 397.6875 339.140625 397.6875 343.335938 Z M 397.6875 385.304688 " fill-opacity="1" fill-rule="nonzero"/><path fill="#ffffff" d="M 397.6875 370.597656 C 397.726562 370.605469 397.765625 370.605469 397.804688 370.597656 C 398.195312 370.488281 407.417969 367.808594 420.855469 355.46875 C 435.164062 342.328125 441.914062 322.617188 441.988281 322.421875 C 442.023438 322.300781 442.011719 322.1875 441.957031 322.078125 C 441.902344 321.96875 441.816406 321.894531 441.699219 321.851562 C 441.582031 321.816406 441.46875 321.824219 441.359375 321.875 C 441.25 321.929688 441.171875 322.015625 441.132812 322.132812 C 441.070312 322.332031 434.382812 341.824219 420.242188 354.800781 C 406.996094 366.980469 397.664062 369.707031 397.5625 369.734375 C 397.445312 369.769531 397.355469 369.839844 397.292969 369.949219 C 397.234375 370.058594 397.222656 370.171875 397.257812 370.292969 C 397.324219 370.5 397.46875 370.601562 397.6875 370.597656 Z M 397.6875 370.597656 " fill-opacity="1" fill-rule="nonzero"/><path fill="#ffffff" d="M 417.101562 358.601562 C 417.308594 358.605469 417.449219 358.507812 417.515625 358.3125 C 420.40625 350.894531 421.0625 335.03125 421.117188 334.355469 C 421.117188 334.230469 421.078125 334.125 420.996094 334.035156 C 420.910156 333.941406 420.808594 333.894531 420.683594 333.886719 C 420.5625 333.886719 420.457031 333.929688 420.367188 334.011719 C 420.277344 334.09375 420.226562 334.195312 420.214844 334.320312 C 420.214844 334.480469 419.542969 350.707031 416.707031 357.988281 C 416.660156 358.105469 416.664062 358.222656 416.714844 358.335938 C 416.765625 358.449219 416.851562 358.53125 416.96875 358.574219 C 417.011719 358.589844 417.054688 358.597656 417.101562 358.601562 Z M 417.101562 358.601562 " fill-opacity="1" fill-rule="nonzero"/><path fill="#ffffff" d="M 417.175781 369.265625 C 418.003906 369.273438 418.832031 369.230469 419.660156 369.140625 C 419.785156 369.125 419.882812 369.070312 419.960938 368.96875 C 420.039062 368.871094 420.070312 368.761719 420.058594 368.636719 C 420.042969 368.511719 419.984375 368.410156 419.886719 368.332031 C 419.785156 368.253906 419.675781 368.222656 419.550781 368.238281 C 419.46875 368.238281 411.089844 369.195312 407.246094 365.277344 C 407.164062 365.179688 407.054688 365.125 406.925781 365.121094 C 406.792969 365.113281 406.679688 365.15625 406.585938 365.25 C 406.496094 365.339844 406.449219 365.453125 406.453125 365.582031 C 406.457031 365.714844 406.507812 365.824219 406.609375 365.910156 C 409.390625 368.78125 414.242188 369.265625 417.175781 369.265625 Z M 417.175781 369.265625 " fill-opacity="1" fill-rule="nonzero"/><path fill="#e0e0e0" d="M 423.65625 198.839844 L 424.625 193.234375 L 429.628906 196.527344 C 430.09375 195.617188 430.726562 194.847656 431.53125 194.214844 L 429.136719 187.734375 L 433.636719 186.738281 L 436.929688 193.035156 C 438.128906 193.238281 439.269531 193.609375 440.359375 194.152344 L 441.789062 189.398438 L 447.136719 193.601562 L 446.785156 199.183594 C 447.875 200.40625 448.859375 201.707031 449.738281 203.089844 L 454.144531 202.863281 L 457.242188 209.804688 L 453.453125 211.421875 C 453.851562 212.863281 454.097656 214.328125 454.199219 215.816406 L 459.015625 220.242188 L 458.050781 225.859375 L 453.039062 222.566406 C 452.578125 223.476562 451.945312 224.242188 451.140625 224.871094 L 453.488281 231.359375 L 448.988281 232.347656 L 444.273438 227.757812 C 443.183594 227.585938 443.453125 225.535156 442.265625 224.949219 L 440.835938 229.683594 L 435.5 225.492188 L 435.632812 223.292969 C 434.554688 222.089844 430.46875 219.433594 429.585938 218.046875 L 428.476562 216.246094 L 425.382812 209.308594 L 426.824219 206.699219 L 428.425781 203.296875 Z M 439.988281 217.300781 C 444.09375 220.523438 445.390625 221.234375 446.082031 216.921875 C 446.777344 212.613281 444.425781 206.058594 440.324219 202.828125 C 436.21875 199.597656 434.652344 199.371094 433.914062 203.675781 C 433.175781 207.976562 435.875 214.113281 439.988281 217.300781 Z M 439.988281 217.300781 " fill-opacity="1" fill-rule="nonzero"/><path fill="#f5f5f5" d="M 433.597656 186.738281 L 427.757812 190.101562 L 431.050781 196.382812 L 436.894531 193.019531 Z M 433.597656 186.738281 " fill-opacity="1" fill-rule="nonzero"/><path fill="#f5f5f5" d="M 418.785156 196.601562 L 423.789062 199.894531 L 429.628906 196.527344 L 424.625 193.234375 Z M 418.785156 196.601562 " fill-opacity="1" fill-rule="nonzero"/><path fill="#e0e0e0" d="M 419.585938 212.648438 L 423.375 211.035156 L 429.214844 207.671875 L 425.425781 209.28125 Z M 419.585938 212.648438 " fill-opacity="1" fill-rule="nonzero"/><path fill="#e0e0e0" d="M 453.5 231.359375 L 447.65625 234.714844 L 445.261719 228.234375 L 451.105469 224.871094 Z M 453.5 231.359375 " fill-opacity="1" fill-rule="nonzero"/><path fill="#e0e0e0" d="M 435.046875 233.050781 L 440.878906 229.683594 L 442.3125 224.949219 L 436.46875 228.316406 Z M 435.046875 233.050781 " fill-opacity="1" fill-rule="nonzero"/><path fill="#ebebeb" d="M 417.824219 202.207031 L 418.785156 196.601562 L 423.789062 199.894531 C 424.253906 198.984375 424.890625 198.210938 425.699219 197.582031 L 423.304688 191.101562 L 427.757812 190.101562 L 431.0625 196.402344 C 432.257812 196.605469 433.402344 196.976562 434.492188 197.519531 L 435.914062 192.785156 L 441.257812 196.988281 L 440.90625 202.566406 C 442 203.796875 442.984375 205.109375 443.859375 206.5 L 448.277344 206.273438 L 451.375 213.214844 L 447.585938 214.835938 C 447.976562 216.277344 448.226562 217.742188 448.332031 219.234375 L 453.136719 223.601562 L 452.175781 229.214844 L 447.171875 225.921875 C 446.707031 226.832031 446.070312 227.597656 445.261719 228.226562 L 447.65625 234.707031 L 443.15625 235.707031 L 439.863281 229.40625 C 438.660156 229.207031 437.515625 228.832031 436.425781 228.28125 L 435.003906 233.015625 L 429.65625 228.820312 L 430.007812 223.242188 C 428.917969 222.019531 427.933594 220.71875 427.054688 219.335938 L 422.636719 219.550781 L 419.542969 212.613281 L 423.382812 211 C 422.984375 209.558594 422.734375 208.089844 422.628906 206.597656 Z M 434.140625 220.703125 C 438.234375 223.925781 442.160156 223.050781 442.90625 218.75 C 443.652344 214.449219 440.925781 208.335938 436.820312 205.113281 C 432.71875 201.890625 428.800781 202.773438 428.054688 207.078125 C 427.308594 211.378906 430.035156 217.480469 434.140625 220.703125 Z M 434.140625 220.703125 " fill-opacity="1" fill-rule="nonzero"/><path fill="#f5f5f5" d="M 435.914062 192.765625 L 441.753906 189.398438 L 447.097656 193.601562 L 441.257812 196.96875 Z M 435.914062 192.765625 " fill-opacity="1" fill-rule="nonzero"/><path fill="#e0e0e0" d="M 447.097656 193.601562 L 446.75 199.183594 L 440.90625 202.550781 L 441.257812 196.96875 Z M 447.097656 193.601562 " fill-opacity="1" fill-rule="nonzero"/><path fill="#f5f5f5" d="M 443.859375 206.457031 L 449.699219 203.089844 L 454.109375 202.875 L 448.277344 206.238281 Z M 443.859375 206.457031 " fill-opacity="1" fill-rule="nonzero"/><path fill="#e0e0e0" d="M 454.109375 202.875 L 457.207031 209.804688 L 451.375 213.167969 L 448.277344 206.238281 Z M 454.109375 202.875 " fill-opacity="1" fill-rule="nonzero"/><path fill="#f5f5f5" d="M 448.332031 219.179688 L 454.164062 215.816406 L 458.980469 220.242188 L 453.148438 223.609375 Z M 448.332031 219.179688 " fill-opacity="1" fill-rule="nonzero"/><path fill="#e0e0e0" d="M 452.175781 229.226562 L 458.015625 225.859375 L 458.980469 220.242188 L 453.148438 223.609375 Z M 452.175781 229.226562 " fill-opacity="1" fill-rule="nonzero"/><path fill="#f5f5f5" d="M 427.757812 190.101562 L 433.597656 186.738281 L 429.136719 187.734375 L 423.304688 191.101562 Z M 427.757812 190.101562 " fill-opacity="1" fill-rule="nonzero"/><path fill="#e0e0e0" d="M 449.808594 173.390625 L 449.808594 165.011719 L 456.476562 168.015625 C 456.832031 166.582031 457.433594 165.261719 458.277344 164.046875 L 454.074219 155.578125 L 459.203125 152.617188 L 464.441406 160.492188 C 465.914062 160.363281 467.359375 160.503906 468.78125 160.914062 L 469.519531 153.632812 L 476.773438 157.828125 L 477.5 165.929688 C 479.082031 167.328125 480.527344 168.859375 481.839844 170.519531 L 487.078125 168.71875 L 492.207031 177.609375 L 488.011719 181.210938 C 488.789062 183.175781 489.390625 185.191406 489.8125 187.257812 L 496.484375 191.949219 L 496.484375 200.335938 L 489.8125 197.328125 C 489.457031 198.761719 488.855469 200.085938 488.011719 201.296875 L 492.1875 209.777344 L 487.058594 212.738281 L 481.820312 204.863281 C 480.347656 204.992188 478.902344 204.847656 477.484375 204.4375 L 476.753906 211.71875 L 469.5 207.527344 L 468.761719 199.425781 C 466.457031 198.585938 464.519531 197.222656 462.949219 195.339844 L 459.1875 196.664062 L 454.054688 187.78125 L 457.207031 185.082031 C 456.515625 182.808594 456.265625 180.488281 456.460938 178.125 Z M 473.144531 194.324219 C 478.707031 197.535156 482.144531 195.222656 482.144531 188.824219 C 482.144531 182.425781 477.546875 174.515625 471.976562 171.300781 C 466.40625 168.089844 463.039062 170.402344 463.039062 176.855469 C 463.039062 183.308594 467.574219 191.101562 473.144531 194.324219 Z M 473.144531 194.324219 " fill-opacity="1" fill-rule="nonzero"/><path fill="#f5f5f5" d="M 453.371094 155.972656 L 459.203125 152.617188 L 464.441406 160.492188 L 458.609375 163.859375 Z M 453.371094 155.972656 " fill-opacity="1" fill-rule="nonzero"/><path fill="#f5f5f5" d="M 443.96875 168.375 L 449.808594 165.011719 L 456.476562 168.015625 L 450.636719 171.382812 Z M 443.96875 168.375 " fill-opacity="1" fill-rule="nonzero"/><path fill="#e0e0e0" d="M 470.941406 215.085938 L 476.773438 211.71875 L 477.5 204.4375 L 471.667969 207.804688 Z M 470.941406 215.085938 " fill-opacity="1" fill-rule="nonzero"/><path fill="#e0e0e0" d="M 492.214844 209.777344 L 486.375 213.140625 L 482.171875 204.671875 L 488.011719 201.308594 Z M 492.214844 209.777344 " fill-opacity="1" fill-rule="nonzero"/><path fill="#ebebeb" d="M 443.96875 176.800781 L 443.96875 168.421875 L 450.636719 171.398438 C 450.988281 169.964844 451.589844 168.640625 452.4375 167.429688 L 448.234375 158.960938 L 453.363281 155.992188 L 458.601562 163.875 C 460.074219 163.742188 461.519531 163.882812 462.9375 164.300781 L 463.675781 157 L 470.929688 161.195312 L 471.667969 169.292969 C 473.25 170.699219 474.695312 172.226562 476.007812 173.882812 L 481.246094 172.085938 L 486.375 180.976562 L 482.171875 184.578125 C 482.953125 186.539062 483.554688 188.554688 483.972656 190.625 L 490.640625 195.3125 L 490.640625 203.703125 L 483.972656 200.695312 C 483.621094 202.128906 483.019531 203.453125 482.171875 204.664062 L 486.375 213.132812 L 481.246094 216.09375 L 476.007812 208.21875 C 474.535156 208.347656 473.089844 208.207031 471.667969 207.796875 L 470.929688 215.078125 L 463.675781 210.882812 L 462.949219 202.785156 C 461.367188 201.382812 459.921875 199.851562 458.609375 198.195312 L 453.371094 199.992188 L 448.242188 191.109375 L 452.445312 187.511719 C 451.664062 185.546875 451.066406 183.53125 450.644531 181.460938 Z M 467.304688 197.734375 C 472.875 200.949219 477.394531 198.335938 477.394531 191.910156 C 477.394531 185.484375 472.894531 177.664062 467.304688 174.441406 C 461.714844 171.21875 457.222656 173.839844 457.222656 180.265625 C 457.222656 186.691406 461.742188 194.46875 467.304688 197.6875 Z M 467.304688 197.734375 " fill-opacity="1" fill-rule="nonzero"/><path fill="#f0f0f0" d="M 481.839844 170.535156 L 476.007812 173.902344 L 481.246094 172.074219 L 487.078125 168.699219 Z M 481.839844 170.535156 " fill-opacity="1" fill-rule="nonzero"/><path fill="#f5f5f5" d="M 492.210938 177.605469 L 487.078125 168.707031 L 481.238281 172.078125 L 486.371094 180.972656 Z M 492.210938 177.605469 " fill-opacity="1" fill-rule="nonzero"/><path fill="#e0e0e0" d="M 492.214844 177.59375 L 486.375 180.957031 L 482.171875 184.578125 L 488.011719 181.21875 Z M 492.214844 177.59375 " fill-opacity="1" fill-rule="nonzero"/><path fill="#f5f5f5" d="M 489.8125 187.265625 L 483.972656 190.632812 L 490.640625 195.324219 L 496.480469 191.957031 Z M 489.8125 187.265625 " fill-opacity="1" fill-rule="nonzero"/><path fill="#e0e0e0" d="M 496.480469 191.957031 L 490.640625 195.324219 L 490.640625 203.710938 L 496.480469 200.34375 Z M 496.480469 191.957031 " fill-opacity="1" fill-rule="nonzero"/><path fill="#f5f5f5" d="M 463.675781 157 L 469.519531 153.632812 L 476.773438 157.828125 L 470.941406 161.195312 Z M 463.675781 157 " fill-opacity="1" fill-rule="nonzero"/><path fill="#e0e0e0" d="M 388.796875 397.34375 L 304.199219 348.492188 C 304.007812 348.425781 303.851562 348.308594 303.734375 348.144531 C 303.617188 347.980469 303.558594 347.796875 303.558594 347.59375 C 303.558594 347.390625 303.617188 347.207031 303.734375 347.042969 C 303.851562 346.875 304.007812 346.761719 304.199219 346.695312 L 312.019531 342.195312 C 312.507812 341.945312 313.03125 341.824219 313.578125 341.824219 C 314.128906 341.824219 314.648438 341.945312 315.140625 342.195312 L 399.769531 391 C 399.960938 391.066406 400.113281 391.183594 400.230469 391.347656 C 400.347656 391.515625 400.40625 391.699219 400.40625 391.898438 C 400.40625 392.101562 400.347656 392.285156 400.230469 392.453125 C 400.113281 392.617188 399.960938 392.734375 399.769531 392.800781 L 391.921875 397.300781 C 391.433594 397.554688 390.914062 397.6875 390.363281 397.695312 C 389.8125 397.703125 389.292969 397.585938 388.796875 397.34375 Z M 388.796875 397.34375 " fill-opacity="1" fill-rule="nonzero"/><path fill="#455a64" d="M 306.519531 159.878906 L 382.804688 203.925781 C 383.953125 204.675781 384.871094 205.648438 385.558594 206.835938 C 386.246094 208.023438 386.625 209.304688 386.699219 210.675781 L 386.699219 391.640625 C 386.699219 394.125 384.953125 395.132812 382.804688 393.890625 L 306.519531 349.84375 C 305.367188 349.09375 304.449219 348.125 303.761719 346.933594 C 303.074219 345.746094 302.695312 344.464844 302.621094 343.09375 L 302.621094 162.128906 C 302.621094 159.644531 304.359375 158.636719 306.519531 159.878906 Z M 306.519531 159.878906 " fill-opacity="1" fill-rule="nonzero"/><path fill="#37474f" d="M 382.804688 203.925781 L 306.519531 159.878906 C 304.59375 158.765625 303 159.457031 302.675781 161.390625 C 302.859375 160.160156 303.285156 159.023438 303.953125 157.976562 C 304.625 156.925781 305.480469 156.0625 306.519531 155.378906 L 309.6875 153.582031 C 310.910156 152.960938 312.210938 152.648438 313.585938 152.648438 C 314.957031 152.648438 316.257812 152.960938 317.480469 153.582031 L 393.773438 197.589844 C 394.941406 198.324219 395.859375 199.292969 396.527344 200.496094 L 385.558594 206.796875 C 384.890625 205.601562 383.972656 204.644531 382.804688 203.925781 Z M 382.804688 203.925781 " fill-opacity="1" fill-rule="nonzero"/><path fill="#263238" d="M 397.6875 385.304688 C 397.613281 386.675781 397.234375 387.953125 396.546875 389.144531 C 395.859375 390.332031 394.941406 391.304688 393.792969 392.054688 L 390.617188 393.851562 C 389.503906 394.410156 388.328125 394.714844 387.085938 394.769531 C 385.84375 394.820312 384.644531 394.617188 383.488281 394.160156 C 385.289062 394.863281 386.71875 393.828125 386.71875 391.601562 L 386.71875 210.675781 C 386.671875 209.296875 386.292969 208.015625 385.574219 206.832031 L 396.546875 200.535156 C 397.253906 201.703125 397.632812 202.972656 397.6875 204.339844 Z M 397.6875 385.304688 " fill-opacity="1" fill-rule="nonzero"/><path fill="#ffffff" d="M 380.707031 228.039062 L 308.589844 186.414062 C 307.292969 185.675781 306.25 186.277344 306.25 187.761719 L 306.25 321.699219 C 306.292969 322.523438 306.519531 323.292969 306.933594 324.007812 C 307.347656 324.71875 307.898438 325.300781 308.589844 325.75 L 380.679688 367.375 C 381.976562 368.121094 383.019531 367.519531 383.019531 366.023438 L 383.019531 232.085938 C 382.976562 231.265625 382.753906 230.5 382.347656 229.785156 C 381.9375 229.074219 381.390625 228.488281 380.707031 228.039062 Z M 380.707031 228.039062 " fill-opacity="1" fill-rule="nonzero"/><path fill="#37474f" d="M 344.660156 188.761719 C 345.066406 189.027344 345.386719 189.367188 345.628906 189.785156 C 345.871094 190.203125 346.003906 190.65625 346.03125 191.136719 C 346.03125 192.039062 345.417969 192.371094 344.660156 191.929688 C 344.257812 191.664062 343.933594 191.324219 343.691406 190.90625 C 343.449219 190.488281 343.316406 190.035156 343.292969 189.554688 C 343.292969 188.679688 343.90625 188.328125 344.660156 188.761719 Z M 344.660156 188.761719 " fill-opacity="1" fill-rule="nonzero"/><path fill="#37474f" d="M 344.660156 352.964844 C 345.449219 353.480469 346.164062 354.078125 346.808594 354.761719 C 347.457031 355.445312 348.011719 356.195312 348.480469 357.011719 C 348.949219 357.824219 349.320312 358.683594 349.585938 359.585938 C 349.851562 360.484375 350.011719 361.40625 350.0625 362.34375 C 350.0625 365.792969 347.640625 367.195312 344.660156 365.46875 C 343.875 364.953125 343.160156 364.351562 342.515625 363.671875 C 341.867188 362.988281 341.3125 362.238281 340.84375 361.421875 C 340.371094 360.609375 340.003906 359.75 339.738281 358.847656 C 339.472656 357.949219 339.3125 357.027344 339.261719 356.089844 C 339.242188 352.640625 341.671875 351.238281 344.660156 352.964844 Z M 344.660156 352.964844 " fill-opacity="1" fill-rule="nonzero"/><path fill="#37474f" d="M 357.613281 202.695312 C 358.414062 203.226562 359.054688 203.910156 359.527344 204.746094 C 360.003906 205.585938 360.265625 206.484375 360.3125 207.445312 C 360.3125 209.191406 359.089844 209.902344 357.613281 209.03125 C 356.800781 208.5 356.15625 207.820312 355.671875 206.980469 C 355.1875 206.144531 354.917969 205.242188 354.867188 204.277344 C 354.867188 202.53125 356.089844 201.820312 357.613281 202.695312 Z M 357.613281 202.695312 " fill-opacity="1" fill-rule="nonzero"/><path fill="#37474f" d="M 350.890625 202.097656 C 350.890625 203.269531 349.988281 203.710938 348.9375 203.089844 L 330.9375 192.675781 C 330.371094 192.324219 329.917969 191.859375 329.570312 191.289062 C 329.226562 190.71875 329.03125 190.101562 328.984375 189.4375 C 328.984375 188.277344 329.882812 187.835938 330.9375 188.457031 L 348.9375 198.867188 C 349.5 199.21875 349.953125 199.679688 350.300781 200.25 C 350.644531 200.820312 350.839844 201.4375 350.890625 202.097656 Z M 350.890625 202.097656 " fill-opacity="1" fill-rule="nonzero"/><path fill="#37474f" d="M 391.605469 233.832031 C 390.957031 234.253906 390.441406 234.800781 390.054688 235.46875 C 389.667969 236.140625 389.453125 236.859375 389.410156 237.632812 C 389.410156 239.035156 390.390625 239.601562 391.605469 238.898438 C 392.25 238.476562 392.765625 237.929688 393.152344 237.261719 C 393.535156 236.59375 393.75 235.875 393.792969 235.101562 C 393.792969 233.707031 392.8125 233.140625 391.605469 233.832031 Z M 391.605469 233.832031 " fill-opacity="1" fill-rule="nonzero"/><path fill="#37474f" d="M 391.605469 250.734375 C 390.957031 251.15625 390.441406 251.703125 390.054688 252.371094 C 389.667969 253.042969 389.453125 253.761719 389.410156 254.535156 C 389.410156 255.929688 390.390625 256.496094 391.605469 255.800781 C 392.25 255.378906 392.765625 254.832031 393.152344 254.164062 C 393.535156 253.496094 393.75 252.773438 393.792969 252.003906 C 393.792969 250.601562 392.8125 250.035156 391.605469 250.734375 Z M 391.605469 250.734375 " fill-opacity="1" fill-rule="nonzero"/><path fill="#455a64" d="M 392.289062 234.175781 C 391.640625 234.597656 391.125 235.144531 390.738281 235.8125 C 390.351562 236.480469 390.136719 237.203125 390.09375 237.972656 C 390.09375 239.367188 391.074219 239.933594 392.289062 239.242188 C 392.9375 238.820312 393.453125 238.273438 393.839844 237.605469 C 394.226562 236.9375 394.441406 236.214844 394.484375 235.445312 C 394.476562 234.039062 393.496094 233.5 392.289062 234.175781 Z M 392.289062 234.175781 " fill-opacity="1" fill-rule="nonzero"/><path fill="#455a64" d="M 392.289062 251.070312 C 391.640625 251.492188 391.121094 252.039062 390.734375 252.707031 C 390.347656 253.378906 390.132812 254.101562 390.09375 254.875 C 390.09375 256.269531 391.074219 256.835938 392.289062 256.136719 C 392.9375 255.714844 393.457031 255.171875 393.84375 254.5 C 394.230469 253.832031 394.445312 253.109375 394.484375 252.335938 C 394.476562 250.941406 393.496094 250.375 392.289062 251.070312 Z M 392.289062 251.070312 " fill-opacity="1" fill-rule="nonzero"/><path fill="#ffffff" d="M 291.652344 192 C 291.652344 190.507812 292.695312 189.90625 293.992188 190.652344 L 302.621094 195.628906 L 366.082031 232.277344 C 366.773438 232.726562 367.324219 233.308594 367.738281 234.019531 C 368.148438 234.734375 368.378906 235.503906 368.421875 236.328125 L 368.421875 370.226562 C 368.421875 371.722656 367.378906 372.324219 366.082031 371.578125 L 302.59375 334.921875 L 293.992188 329.953125 C 293.300781 329.503906 292.75 328.921875 292.335938 328.207031 C 291.921875 327.496094 291.695312 326.726562 291.652344 325.902344 Z M 291.652344 192 " fill-opacity="1" fill-rule="nonzero"/><path fill="#adc178" d="M 290.75 192 C 290.695312 191.539062 290.769531 191.101562 290.976562 190.683594 C 291.179688 190.269531 291.484375 189.945312 291.890625 189.710938 C 292.292969 189.476562 292.726562 189.375 293.1875 189.40625 C 293.652344 189.433594 294.070312 189.589844 294.441406 189.867188 L 302.675781 194.628906 L 366.53125 231.53125 C 367.367188 232.054688 368.03125 232.746094 368.523438 233.601562 C 369.015625 234.457031 369.28125 235.375 369.320312 236.363281 L 369.320312 370.226562 C 369.359375 370.6875 369.273438 371.121094 369.070312 371.53125 C 368.867188 371.945312 368.574219 372.273438 368.1875 372.523438 C 367.859375 372.714844 367.503906 372.808594 367.125 372.800781 C 366.589844 372.785156 366.089844 372.636719 365.632812 372.363281 L 301.730469 335.460938 L 293.515625 330.71875 C 292.683594 330.1875 292.023438 329.496094 291.53125 328.640625 C 291.039062 327.789062 290.769531 326.871094 290.722656 325.886719 Z M 302.660156 333.921875 L 303.394531 334.355469 L 366.496094 370.785156 C 366.722656 370.960938 366.972656 371.015625 367.25 370.949219 C 367.367188 370.875 367.484375 370.625 367.484375 370.210938 L 367.484375 236.328125 C 367.4375 235.664062 367.25 235.046875 366.917969 234.472656 C 366.585938 233.894531 366.144531 233.421875 365.59375 233.050781 L 302.558594 196.601562 L 293.558594 191.390625 C 293.332031 191.214844 293.082031 191.160156 292.804688 191.226562 C 292.6875 191.300781 292.570312 191.550781 292.570312 191.964844 L 292.570312 325.902344 C 292.617188 326.566406 292.804688 327.183594 293.136719 327.757812 C 293.46875 328.332031 293.910156 328.808594 294.460938 329.179688 L 302.675781 333.921875 Z M 302.660156 333.921875 " fill-opacity="1" fill-rule="nonzero"/><path fill="#adc178" d="M 330.035156 223.113281 C 321.9375 218.453125 315.410156 222.214844 315.410156 231.566406 C 315.410156 240.917969 321.964844 252.265625 330.035156 256.890625 C 338.109375 261.515625 344.660156 257.792969 344.660156 248.449219 C 344.660156 239.105469 338.109375 227.785156 330.035156 223.113281 Z M 330.035156 223.113281 " fill-opacity="1" fill-rule="nonzero"/><path fill="#adc178" d="M 330.035156 230.457031 C 327.417969 228.945312 325.292969 230.171875 325.292969 233.160156 C 325.335938 233.980469 325.476562 234.789062 325.710938 235.578125 C 325.945312 236.367188 326.269531 237.121094 326.683594 237.835938 C 327.09375 238.546875 327.582031 239.203125 328.152344 239.800781 C 328.71875 240.402344 329.347656 240.925781 330.035156 241.375 C 332.65625 242.886719 334.78125 241.664062 334.78125 238.675781 C 334.734375 237.851562 334.59375 237.046875 334.359375 236.253906 C 334.125 235.464844 333.800781 234.714844 333.390625 234 C 332.976562 233.285156 332.488281 232.628906 331.921875 232.03125 C 331.355469 231.433594 330.726562 230.910156 330.035156 230.457031 Z M 330.035156 230.457031 " fill-opacity="1" fill-rule="nonzero"/><path fill="#adc178" d="M 320.792969 246.585938 C 320.792969 241.617188 324.277344 239.601562 328.585938 242.085938 L 331.289062 243.644531 C 335.589844 246.128906 339.082031 252.175781 339.082031 257.144531 L 339.082031 258.484375 C 336.589844 259.304688 333.457031 258.863281 330.082031 256.890625 C 326.292969 254.554688 323.210938 251.503906 320.839844 247.738281 Z M 320.792969 246.585938 " fill-opacity="1" fill-rule="nonzero"/><path fill="#ffffff" d="M 330.035156 230.457031 C 327.417969 228.945312 325.292969 230.171875 325.292969 233.160156 C 325.335938 233.980469 325.476562 234.789062 325.710938 235.578125 C 325.945312 236.367188 326.269531 237.121094 326.683594 237.835938 C 327.09375 238.546875 327.582031 239.203125 328.152344 239.800781 C 328.71875 240.402344 329.347656 240.925781 330.035156 241.375 C 332.65625 242.886719 334.78125 241.664062 334.78125 238.675781 C 334.734375 237.851562 334.59375 237.046875 334.359375 236.253906 C 334.125 235.464844 333.800781 234.714844 333.390625 234 C 332.976562 233.285156 332.488281 232.628906 331.921875 232.03125 C 331.355469 231.433594 330.726562 230.910156 330.035156 230.457031 Z M 330.035156 230.457031 " fill-opacity="0.698" fill-rule="nonzero"/><path fill="#ffffff" d="M 320.792969 246.585938 C 320.792969 241.617188 324.277344 239.601562 328.585938 242.085938 L 331.289062 243.644531 C 335.589844 246.128906 339.082031 252.175781 339.082031 257.144531 L 339.082031 258.484375 C 336.589844 259.304688 333.457031 258.863281 330.082031 256.890625 C 326.292969 254.554688 323.210938 251.503906 320.839844 247.738281 Z M 320.792969 246.585938 " fill-opacity="0.698" fill-rule="nonzero"/><path fill="#adc178" d="M 358.332031 277.457031 L 339.511719 266.59375 C 338.613281 266.097656 337.957031 266.496094 337.957031 267.492188 L 337.957031 268.113281 C 337.984375 268.664062 338.136719 269.175781 338.410156 269.652344 C 338.6875 270.125 339.054688 270.515625 339.511719 270.8125 L 358.332031 281.675781 C 359.1875 282.171875 359.890625 281.765625 359.890625 280.777344 L 359.890625 280.15625 C 359.859375 279.609375 359.707031 279.097656 359.433594 278.621094 C 359.160156 278.144531 358.792969 277.757812 358.332031 277.457031 Z M 358.332031 277.457031 " fill-opacity="1" fill-rule="nonzero"/><path fill="#000000" d="M 358.332031 277.457031 L 339.511719 266.59375 C 338.613281 266.097656 337.957031 266.496094 337.957031 267.492188 L 337.957031 268.113281 C 337.984375 268.664062 338.136719 269.175781 338.410156 269.652344 C 338.6875 270.125 339.054688 270.515625 339.511719 270.8125 L 358.332031 281.675781 C 359.1875 282.171875 359.890625 281.765625 359.890625 280.777344 L 359.890625 280.15625 C 359.859375 279.609375 359.707031 279.097656 359.433594 278.621094 C 359.160156 278.144531 358.792969 277.757812 358.332031 277.457031 Z M 358.332031 277.457031 " fill-opacity="0.098" fill-rule="nonzero"/><path fill="#adc178" d="M 359.105469 290.570312 L 302.171875 257.703125 C 301.75 257.449219 301.398438 257.648438 301.398438 258.152344 L 301.398438 264.792969 C 301.433594 265.371094 301.691406 265.820312 302.171875 266.144531 L 359.105469 299.011719 C 359.539062 299.261719 359.890625 299.054688 359.890625 298.5625 L 359.890625 291.917969 C 359.855469 291.335938 359.59375 290.886719 359.105469 290.570312 Z M 359.105469 290.570312 " fill-opacity="1" fill-rule="nonzero"/><path fill="#ffffff" d="M 359.105469 290.570312 L 302.171875 257.703125 C 301.75 257.449219 301.398438 257.648438 301.398438 258.152344 L 301.398438 264.792969 C 301.433594 265.371094 301.691406 265.820312 302.171875 266.144531 L 359.105469 299.011719 C 359.539062 299.261719 359.890625 299.054688 359.890625 298.5625 L 359.890625 291.917969 C 359.855469 291.335938 359.59375 290.886719 359.105469 290.570312 Z M 359.105469 290.570312 " fill-opacity="0.2" fill-rule="nonzero"/><path fill="#adc178" d="M 358.332031 307.003906 L 339.511719 296.140625 C 338.613281 295.644531 337.957031 296.050781 337.957031 297.039062 L 337.957031 297.660156 C 337.984375 298.210938 338.136719 298.722656 338.410156 299.199219 C 338.683594 299.675781 339.050781 300.0625 339.511719 300.363281 L 358.332031 311.222656 C 359.1875 311.726562 359.890625 311.324219 359.890625 310.324219 L 359.890625 309.703125 C 359.859375 309.15625 359.707031 308.644531 359.429688 308.167969 C 359.15625 307.691406 358.792969 307.304688 358.332031 307.003906 Z M 358.332031 307.003906 " fill-opacity="1" fill-rule="nonzero"/><path fill="#000000" d="M 358.332031 307.003906 L 339.511719 296.140625 C 338.613281 295.644531 337.957031 296.050781 337.957031 297.039062 L 337.957031 297.660156 C 337.984375 298.210938 338.136719 298.722656 338.410156 299.199219 C 338.683594 299.675781 339.050781 300.0625 339.511719 300.363281 L 358.332031 311.222656 C 359.1875 311.726562 359.890625 311.324219 359.890625 310.324219 L 359.890625 309.703125 C 359.859375 309.15625 359.707031 308.644531 359.429688 308.167969 C 359.15625 307.691406 358.792969 307.304688 358.332031 307.003906 Z M 358.332031 307.003906 " fill-opacity="0.098" fill-rule="nonzero"/><path fill="#adc178" d="M 359.105469 320.117188 L 302.171875 287.25 C 301.75 286.996094 301.398438 287.203125 301.398438 287.699219 L 301.398438 294.339844 C 301.433594 294.917969 301.691406 295.367188 302.171875 295.691406 L 359.105469 328.558594 C 359.539062 328.808594 359.890625 328.613281 359.890625 328.109375 L 359.890625 321.464844 C 359.855469 320.882812 359.59375 320.433594 359.105469 320.117188 Z M 359.105469 320.117188 " fill-opacity="1" fill-rule="nonzero"/><path fill="#ffffff" d="M 359.105469 320.117188 L 302.171875 287.25 C 301.75 286.996094 301.398438 287.203125 301.398438 287.699219 L 301.398438 294.339844 C 301.433594 294.917969 301.691406 295.367188 302.171875 295.691406 L 359.105469 328.558594 C 359.539062 328.808594 359.890625 328.613281 359.890625 328.109375 L 359.890625 321.464844 C 359.855469 320.882812 359.59375 320.433594 359.105469 320.117188 Z M 359.105469 320.117188 " fill-opacity="0.2" fill-rule="nonzero"/><path fill="#adc178" d="M 336.398438 323.886719 L 313.898438 310.917969 C 313 310.414062 312.332031 310.820312 312.332031 311.820312 L 312.332031 318.765625 C 312.363281 319.316406 312.515625 319.828125 312.792969 320.304688 C 313.070312 320.78125 313.4375 321.167969 313.898438 321.464844 L 336.398438 334.445312 C 337.300781 334.9375 337.957031 334.535156 337.957031 333.542969 L 337.957031 326.585938 C 337.925781 326.039062 337.773438 325.527344 337.496094 325.054688 C 337.222656 324.578125 336.859375 324.1875 336.398438 323.886719 Z M 336.398438 323.886719 " fill-opacity="1" fill-rule="nonzero"/><path fill="#000000" d="M 336.398438 323.886719 L 313.898438 310.917969 C 313 310.414062 312.332031 310.820312 312.332031 311.820312 L 312.332031 318.765625 C 312.363281 319.316406 312.515625 319.828125 312.792969 320.304688 C 313.070312 320.78125 313.4375 321.167969 313.898438 321.464844 L 336.398438 334.445312 C 337.300781 334.9375 337.957031 334.535156 337.957031 333.542969 L 337.957031 326.585938 C 337.925781 326.039062 337.773438 325.527344 337.496094 325.054688 C 337.222656 324.578125 336.859375 324.1875 336.398438 323.886719 Z M 336.398438 323.886719 " fill-opacity="0.098" fill-rule="nonzero"/><path fill="#ffa8a7" d="M 283.121094 294.566406 C 283.121094 294.566406 294.171875 279.320312 294.820312 277.464844 C 295.332031 276.097656 294.820312 274.0625 294.65625 273.117188 C 294.496094 272.171875 294.351562 270.066406 294.1875 269.519531 C 293.917969 268.492188 295.242188 268.699219 295.988281 269.636719 C 296.738281 270.570312 296.988281 272.445312 297.375 272.75 C 297.761719 273.054688 300.707031 268.761719 302.246094 266.78125 C 303.785156 264.800781 304.746094 263.597656 305.691406 264.335938 C 306.367188 264.867188 305.863281 266.015625 304.746094 267.710938 C 304.09375 268.621094 303.492188 269.566406 302.945312 270.542969 C 302.777344 270.914062 303.695312 270.941406 304.1875 271.707031 C 304.574219 272.300781 304.1875 273.261719 304.726562 273.722656 C 304.894531 273.847656 305.03125 274 305.144531 274.175781 C 305.253906 274.355469 305.328125 274.546875 305.367188 274.75 C 305.40625 274.957031 305.410156 275.160156 305.375 275.367188 C 305.339844 275.574219 305.265625 275.765625 305.160156 275.945312 C 304.148438 277.53125 302.878906 278.875 301.351562 279.976562 C 299.699219 281.121094 299.03125 281.523438 298.050781 283.082031 C 297.070312 284.636719 288.265625 300.542969 287.671875 301.496094 C 287.078125 302.449219 285.9375 304.394531 284.199219 304.449219 C 282.460938 304.5 268.242188 292.261719 267.511719 291.648438 C 265.171875 289.695312 264.425781 289.417969 264.03125 291.171875 C 263.894531 291.796875 263.792969 292.425781 263.722656 293.0625 C 263.445312 295.292969 261.925781 303.269531 261.925781 303.269531 C 261.925781 303.269531 254.722656 306.75 248.8125 305.070312 C 242.898438 303.386719 240.902344 300.875 240.902344 300.875 L 243.863281 296.050781 C 243.058594 294.0625 239.363281 285.996094 238.164062 280.355469 L 256.703125 277.355469 C 257.082031 277.277344 257.695312 277.125 258.503906 276.917969 C 259.519531 276.644531 262.105469 275.753906 264.058594 277.464844 C 270.429688 283.019531 283.101562 294.566406 283.101562 294.566406 " fill-opacity="1" fill-rule="nonzero"/><path fill="#37474f" d="M 246.363281 388.113281 L 249.683594 392.726562 C 248.15625 393.441406 246.546875 393.789062 244.859375 393.761719 C 241.882812 393.871094 241.0625 392.863281 240.953125 392.664062 C 240.449219 391.585938 241.234375 389.640625 241.449219 387.96875 Z M 246.363281 388.113281 " fill-opacity="1" fill-rule="nonzero"/><path fill="#37474f" d="M 249.496094 390.515625 C 249.496094 390.515625 253.527344 390.253906 256.308594 389.910156 C 259.089844 389.570312 261.292969 390.917969 260.644531 392.0625 C 260 393.207031 258.460938 394.160156 256.066406 394.960938 C 254.023438 395.652344 251.566406 396.148438 249.441406 396.761719 C 247.316406 397.371094 245.839844 398.171875 244.609375 397.742188 C 243.230469 397.265625 242.636719 396.714844 242.753906 395.707031 C 243.054688 394.273438 243.425781 392.855469 243.871094 391.460938 Z M 249.496094 390.515625 " fill-opacity="1" fill-rule="nonzero"/><path fill="#f28f8f" d="M 240.953125 383.476562 C 240.953125 383.476562 241.457031 387.671875 241.496094 388.570312 C 241.53125 389.46875 245.589844 389.757812 246.363281 388.113281 L 246.488281 382.980469 Z M 240.953125 383.476562 " fill-opacity="1" fill-rule="nonzero"/><path fill="#ffa8a7" d="M 245.039062 386.050781 L 243.589844 392.421875 C 243.589844 392.421875 243.457031 393.195312 246.769531 393.691406 C 250.082031 394.1875 255.28125 391.953125 256.171875 391.503906 C 257.066406 391.054688 257.164062 390.144531 253.90625 390.324219 C 250.648438 390.503906 249.496094 390.515625 249.496094 390.515625 L 250.558594 387.699219 Z M 245.039062 386.050781 " fill-opacity="1" fill-rule="nonzero"/><path fill="#f28f8f" d="M 238.21875 280.300781 L 235.921875 279.660156 C 235.921875 279.660156 231.125 294.84375 230.59375 296.3125 C 230.0625 297.777344 229.460938 299.328125 230.496094 301.136719 C 231.730469 303.285156 238.21875 311.933594 238.21875 311.933594 L 242.339844 307.902344 L 237.660156 299.335938 L 241.800781 290.964844 Z M 238.21875 280.300781 " fill-opacity="1" fill-rule="nonzero"/><path fill="#37474f" d="M 261.789062 260.582031 C 262.058594 260.078125 262.261719 259.546875 262.394531 258.988281 C 262.527344 258.433594 262.59375 257.871094 262.582031 257.296875 C 262.574219 256.726562 262.496094 256.164062 262.34375 255.609375 C 262.191406 255.058594 261.972656 254.535156 261.691406 254.039062 C 259.40625 249.800781 254.308594 247.738281 248.246094 248.519531 C 245.4375 248.890625 242.125 251.222656 240.316406 254.703125 C 238.316406 258.566406 238.128906 266.339844 237.617188 269.285156 Z M 261.789062 260.582031 " fill-opacity="1" fill-rule="nonzero"/><path fill="#ffa8a7" d="M 261.953125 262.246094 C 261.953125 262.246094 263.390625 264.992188 263.140625 265.242188 C 262.761719 265.464844 262.363281 265.613281 261.933594 265.695312 Z M 261.953125 262.246094 " fill-opacity="1" fill-rule="nonzero"/><path fill="#ffa8a7" d="M 257.578125 253.570312 C 259.144531 254.585938 261.84375 256.460938 261.960938 262.625 C 262.085938 268.925781 261.1875 271.003906 260.25 271.730469 C 259.621094 272.226562 255.921875 271.976562 254.335938 271.605469 C 252.753906 271.238281 248.191406 268.976562 246.542969 265.550781 C 244.609375 261.515625 245.003906 255.648438 247.875 253.847656 C 248.605469 253.417969 249.378906 253.082031 250.195312 252.847656 C 251.011719 252.613281 251.84375 252.480469 252.691406 252.457031 C 253.539062 252.433594 254.375 252.515625 255.203125 252.703125 C 256.03125 252.890625 256.824219 253.179688 257.578125 253.570312 Z M 257.578125 253.570312 " fill-opacity="1" fill-rule="nonzero"/><path fill="#adc178" d="M 240.953125 300.839844 C 238.183594 305.160156 235.554688 308.9375 234.976562 313.816406 C 233.789062 324.066406 237.679688 335.785156 238.515625 343.371094 C 236.90625 345.578125 236.035156 348.042969 235.90625 350.769531 C 235.90625 353.910156 240.953125 383.476562 240.953125 383.476562 C 240.953125 383.476562 244.625 384.59375 246.488281 382.980469 L 249.953125 328.59375 L 248.15625 321.96875 Z M 240.953125 300.839844 " fill-opacity="1" fill-rule="nonzero"/><path fill="#000000" d="M 240.953125 300.839844 C 238.183594 305.160156 235.554688 308.9375 234.976562 313.816406 C 233.789062 324.066406 237.679688 335.785156 238.515625 343.371094 C 236.90625 345.578125 236.035156 348.042969 235.90625 350.769531 C 235.90625 353.910156 240.953125 383.476562 240.953125 383.476562 C 240.953125 383.476562 244.625 384.59375 246.488281 382.980469 L 249.953125 328.59375 L 248.15625 321.96875 Z M 240.953125 300.839844 " fill-opacity="0.2" fill-rule="nonzero"/><path fill="#adc178" d="M 249.953125 328.59375 L 248.15625 321.96875 C 244.695312 321.058594 241.394531 319.75 238.253906 318.039062 C 238.253906 318.039062 240.125 321.449219 245.507812 323.320312 L 248.289062 331.824219 L 248.523438 351.308594 Z M 249.953125 328.59375 " fill-opacity="1" fill-rule="nonzero"/><path fill="#000000" d="M 249.953125 328.59375 L 248.15625 321.96875 C 244.695312 321.058594 241.394531 319.75 238.253906 318.039062 C 238.253906 318.039062 240.125 321.449219 245.507812 323.320312 L 248.289062 331.824219 L 248.523438 351.308594 Z M 249.953125 328.59375 " fill-opacity="0.298" fill-rule="nonzero"/><path fill="#adc178" d="M 240.953125 300.839844 C 239.46875 303.269531 235.921875 307.410156 236.679688 311.394531 C 237.578125 316.21875 240.1875 319.613281 248.128906 321.96875 L 255.578125 348.96875 C 255.578125 348.96875 251.699219 352.570312 250.511719 356.054688 C 249.324219 359.535156 245.039062 386.070312 245.039062 386.070312 C 245.039062 386.070312 246.371094 388.238281 250.558594 387.714844 C 250.558594 387.714844 265.144531 354.414062 266.171875 352.246094 C 266.796875 351.148438 267.210938 349.976562 267.425781 348.730469 C 267.636719 347.488281 267.628906 346.242188 267.40625 345 C 266.945312 341.507812 262.003906 303.285156 262.003906 303.285156 Z M 240.953125 300.839844 " fill-opacity="1" fill-rule="nonzero"/><path fill="#000000" d="M 240.953125 300.839844 C 239.46875 303.269531 235.921875 307.410156 236.679688 311.394531 C 237.578125 316.21875 240.1875 319.613281 248.128906 321.96875 L 255.578125 348.96875 C 255.578125 348.96875 251.699219 352.570312 250.511719 356.054688 C 249.324219 359.535156 245.039062 386.070312 245.039062 386.070312 C 245.039062 386.070312 246.371094 388.238281 250.558594 387.714844 C 250.558594 387.714844 265.144531 354.414062 266.171875 352.246094 C 266.796875 351.148438 267.210938 349.976562 267.425781 348.730469 C 267.636719 347.488281 267.628906 346.242188 267.40625 345 C 266.945312 341.507812 262.003906 303.285156 262.003906 303.285156 Z M 240.953125 300.839844 " fill-opacity="0.2" fill-rule="nonzero"/><path fill="#adc178" d="M 238.21875 280.300781 L 256.757812 277.304688 C 257.136719 277.222656 257.75 277.070312 258.558594 276.863281 C 258.558594 276.863281 259.351562 288.492188 264.113281 291.15625 C 263.996094 291.710938 263.894531 292.332031 263.804688 293.042969 C 263.527344 295.277344 262.003906 303.25 262.003906 303.25 C 262.003906 303.25 254.804688 306.734375 248.890625 305.050781 C 242.980469 303.367188 240.980469 300.855469 240.980469 300.855469 L 243.941406 296.03125 C 243.113281 294.023438 239.386719 285.960938 238.21875 280.300781 Z M 238.21875 280.300781 " fill-opacity="1" fill-rule="nonzero"/><path fill="#ffffff" d="M 238.21875 280.300781 L 256.757812 277.304688 C 257.136719 277.222656 257.75 277.070312 258.558594 276.863281 C 258.558594 276.863281 259.351562 288.492188 264.113281 291.15625 C 263.996094 291.710938 263.894531 292.332031 263.804688 293.042969 C 263.527344 295.277344 262.003906 303.25 262.003906 303.25 C 262.003906 303.25 254.804688 306.734375 248.890625 305.050781 C 242.980469 303.367188 240.980469 300.855469 240.980469 300.855469 L 243.941406 296.03125 C 243.113281 294.023438 239.386719 285.960938 238.21875 280.300781 Z M 238.21875 280.300781 " fill-opacity="0.698" fill-rule="nonzero"/><path fill="#adc178" d="M 243.105469 294.117188 C 245.570312 295.597656 248.144531 296.867188 250.820312 297.921875 C 248.355469 297.875 246.054688 297.238281 243.914062 296.015625 Z M 243.105469 294.117188 " fill-opacity="1" fill-rule="nonzero"/><path fill="#37474f" d="M 258.035156 253.875 C 258.035156 253.875 258.9375 259.726562 256.8125 263.164062 C 256.8125 263.164062 256.019531 260.832031 254.050781 261.273438 C 252.078125 261.714844 251.96875 264.316406 253.355469 265.773438 C 253.714844 266.191406 254.160156 266.480469 254.683594 266.644531 C 255.210938 266.804688 255.742188 266.816406 256.273438 266.675781 C 256.273438 266.675781 256.585938 270.90625 256.757812 274.449219 C 256.929688 277.996094 257.867188 285.726562 253.878906 288.851562 C 249.890625 291.972656 239.882812 293.070312 235.195312 286.519531 C 232.585938 282.875 236.050781 276.429688 237.660156 269.203125 C 239.144531 262.5625 239.980469 252.714844 247.03125 251.132812 C 254.078125 249.546875 258.035156 253.875 258.035156 253.875 Z M 258.035156 253.875 " fill-opacity="1" fill-rule="nonzero"/><path fill="#ebebeb" d="M 232.179688 173.949219 L 233.664062 174.847656 C 233.539062 174.316406 233.46875 173.78125 233.457031 173.238281 C 233.457031 170.222656 235.574219 169.007812 238.183594 170.535156 C 238.980469 171.019531 239.679688 171.617188 240.28125 172.335938 C 240.28125 168.285156 243.125 166.640625 246.632812 168.664062 C 247.558594 169.265625 248.398438 169.96875 249.160156 170.773438 C 249.917969 171.574219 250.574219 172.453125 251.125 173.410156 C 251.679688 174.363281 252.113281 175.371094 252.425781 176.429688 C 252.742188 177.488281 252.925781 178.570312 252.988281 179.671875 C 252.988281 179.878906 252.988281 180.078125 252.988281 180.273438 C 253.921875 180.15625 254.78125 180.355469 255.570312 180.867188 C 256.257812 181.316406 256.882812 181.839844 257.449219 182.433594 C 258.011719 183.03125 258.5 183.683594 258.910156 184.394531 C 259.320312 185.105469 259.644531 185.851562 259.878906 186.640625 C 260.113281 187.425781 260.25 188.230469 260.296875 189.050781 C 260.296875 189.429688 260.257812 189.808594 260.179688 190.183594 L 260.96875 190.640625 C 263.121094 191.882812 264.867188 194.304688 264.867188 196.042969 C 264.867188 197.78125 263.121094 198.195312 260.96875 196.941406 L 232.171875 180.335938 C 230.019531 179.09375 228.273438 176.675781 228.273438 174.9375 C 228.273438 173.199219 230.027344 172.695312 232.179688 173.949219 Z M 232.179688 173.949219 " fill-opacity="1" fill-rule="nonzero"/></svg>