<svg xmlns="http://www.w3.org/2000/svg" xmlns:xlink="http://www.w3.org/1999/xlink" width="960" zoomAndPan="magnify" viewBox="0 0 720 599.999999" height="800" preserveAspectRatio="xMidYMid meet" version="1.0"><path fill="#f5f5f5" d="M 247.808594 425.417969 C 309.828125 454.972656 410.375 454.980469 472.394531 425.417969 C 534.414062 395.851562 534.402344 347.933594 472.394531 318.378906 C 410.382812 288.824219 309.828125 288.824219 247.808594 318.378906 C 185.789062 347.933594 185.796875 395.859375 247.808594 425.417969 Z M 247.808594 425.417969 " fill-opacity="1" fill-rule="nonzero"/><path fill="#ebebeb" d="M 492.859375 393.71875 C 492.859375 394.042969 492.828125 394.363281 492.761719 394.683594 C 492.695312 395.003906 492.59375 395.324219 492.460938 395.640625 C 492.328125 395.957031 492.164062 396.269531 491.96875 396.578125 C 491.773438 396.886719 491.542969 397.191406 491.285156 397.488281 C 491.027344 397.789062 490.738281 398.078125 490.417969 398.363281 C 490.097656 398.648438 489.75 398.925781 489.375 399.195312 C 488.996094 399.460938 488.59375 399.722656 488.164062 399.96875 C 487.734375 400.21875 487.28125 400.457031 486.800781 400.6875 C 486.324219 400.914062 485.820312 401.132812 485.296875 401.335938 C 484.773438 401.542969 484.230469 401.734375 483.667969 401.914062 C 483.105469 402.089844 482.523438 402.257812 481.925781 402.410156 C 481.328125 402.5625 480.71875 402.699219 480.09375 402.824219 C 479.464844 402.945312 478.828125 403.054688 478.179688 403.148438 C 477.53125 403.242188 476.875 403.320312 476.210938 403.382812 C 475.546875 403.445312 474.878906 403.496094 474.203125 403.527344 C 473.53125 403.558594 472.855469 403.574219 472.175781 403.574219 C 471.5 403.574219 470.824219 403.558594 470.148438 403.527344 C 469.476562 403.496094 468.808594 403.445312 468.140625 403.382812 C 467.476562 403.320312 466.820312 403.242188 466.171875 403.148438 C 465.527344 403.054688 464.886719 402.945312 464.261719 402.824219 C 463.636719 402.699219 463.023438 402.5625 462.429688 402.410156 C 461.832031 402.257812 461.25 402.089844 460.6875 401.914062 C 460.125 401.734375 459.582031 401.542969 459.058594 401.335938 C 458.535156 401.132812 458.03125 400.914062 457.554688 400.6875 C 457.074219 400.457031 456.621094 400.21875 456.191406 399.96875 C 455.761719 399.722656 455.355469 399.460938 454.980469 399.195312 C 454.605469 398.925781 454.257812 398.648438 453.9375 398.363281 C 453.617188 398.078125 453.328125 397.789062 453.070312 397.488281 C 452.808594 397.191406 452.582031 396.886719 452.386719 396.578125 C 452.1875 396.269531 452.023438 395.957031 451.894531 395.640625 C 451.761719 395.324219 451.660156 395.003906 451.59375 394.683594 C 451.527344 394.363281 451.496094 394.042969 451.496094 393.71875 C 451.496094 393.394531 451.527344 393.074219 451.59375 392.753906 C 451.660156 392.429688 451.761719 392.113281 451.894531 391.796875 C 452.023438 391.480469 452.1875 391.167969 452.386719 390.859375 C 452.582031 390.546875 452.808594 390.246094 453.070312 389.945312 C 453.328125 389.648438 453.617188 389.359375 453.9375 389.074219 C 454.257812 388.789062 454.605469 388.511719 454.980469 388.242188 C 455.355469 387.976562 455.761719 387.714844 456.191406 387.464844 C 456.621094 387.21875 457.074219 386.976562 457.554688 386.75 C 458.03125 386.523438 458.535156 386.304688 459.058594 386.101562 C 459.582031 385.894531 460.125 385.703125 460.6875 385.523438 C 461.25 385.34375 461.832031 385.179688 462.429688 385.027344 C 463.023438 384.875 463.636719 384.738281 464.261719 384.613281 C 464.886719 384.488281 465.527344 384.382812 466.171875 384.289062 C 466.820312 384.195312 467.476562 384.117188 468.140625 384.054688 C 468.808594 383.988281 469.476562 383.941406 470.148438 383.910156 C 470.824219 383.878906 471.5 383.863281 472.175781 383.863281 C 472.855469 383.863281 473.53125 383.878906 474.203125 383.910156 C 474.878906 383.941406 475.546875 383.988281 476.210938 384.054688 C 476.875 384.117188 477.53125 384.195312 478.179688 384.289062 C 478.828125 384.382812 479.464844 384.488281 480.09375 384.613281 C 480.71875 384.738281 481.328125 384.875 481.925781 385.027344 C 482.523438 385.179688 483.105469 385.34375 483.667969 385.523438 C 484.230469 385.703125 484.773438 385.894531 485.296875 386.101562 C 485.820312 386.304688 486.324219 386.523438 486.800781 386.75 C 487.28125 386.976562 487.734375 387.21875 488.164062 387.464844 C 488.59375 387.714844 488.996094 387.976562 489.375 388.242188 C 489.75 388.511719 490.097656 388.789062 490.417969 389.074219 C 490.738281 389.355469 491.027344 389.648438 491.285156 389.945312 C 491.542969 390.246094 491.773438 390.546875 491.96875 390.859375 C 492.164062 391.167969 492.328125 391.480469 492.460938 391.796875 C 492.59375 392.113281 492.695312 392.429688 492.761719 392.753906 C 492.828125 393.074219 492.859375 393.394531 492.859375 393.71875 Z M 492.859375 393.71875 " fill-opacity="1" fill-rule="nonzero"/><path fill="#d86634" d="M 243.101562 395.132812 L 250.417969 390.910156 C 252.460938 389.242188 254.246094 387.335938 255.773438 385.1875 C 257.300781 383.039062 258.515625 380.722656 259.417969 378.246094 C 261.675781 372.019531 261.363281 367.285156 259.742188 364.910156 C 257.753906 361.984375 252.59375 362.496094 252.386719 368.652344 C 251.957031 380.785156 248.417969 389.199219 243.101562 395.132812 Z M 243.101562 395.132812 " fill-opacity="1" fill-rule="nonzero"/><path fill="#000000" d="M 243.101562 395.132812 L 250.417969 390.910156 C 252.460938 389.242188 254.246094 387.335938 255.773438 385.1875 C 257.300781 383.039062 258.515625 380.722656 259.417969 378.246094 C 261.675781 372.019531 261.363281 367.285156 259.742188 364.910156 C 257.753906 361.984375 252.59375 362.496094 252.386719 368.652344 C 251.957031 380.785156 248.417969 389.199219 243.101562 395.132812 Z M 243.101562 395.132812 " fill-opacity="0.2" fill-rule="nonzero"/><path fill="#ffffff" d="M 243.101562 395.582031 C 242.882812 395.578125 242.738281 395.472656 242.675781 395.265625 C 242.613281 395.054688 242.667969 394.886719 242.847656 394.761719 C 259.769531 383.0625 256.492188 366.746094 256.457031 366.582031 C 256.429688 366.460938 256.453125 366.34375 256.519531 366.238281 C 256.589844 366.128906 256.6875 366.0625 256.8125 366.039062 C 256.9375 366.011719 257.050781 366.035156 257.15625 366.101562 C 257.265625 366.171875 257.332031 366.269531 257.355469 366.394531 C 257.355469 366.566406 260.8125 383.441406 243.386719 395.5 C 243.300781 395.558594 243.207031 395.585938 243.101562 395.582031 Z M 243.101562 395.582031 " fill-opacity="1" fill-rule="nonzero"/><path fill="#d86634" d="M 228.4375 403.601562 C 228.4375 403.601562 225.890625 401.53125 226.503906 398.722656 C 227.117188 395.914062 228.761719 393.898438 225.945312 390.28125 C 223.128906 386.664062 222.347656 381.839844 225.710938 379.226562 C 228.277344 377.203125 232.28125 380.066406 233.722656 374.726562 C 234.785156 370.824219 234.425781 362.171875 239.402344 359.292969 C 244.378906 356.414062 247.5 360.75 246.71875 366.621094 C 246.035156 371.867188 245.0625 376.914062 245.820312 378.320312 C 247.277344 381.019531 249.769531 380.652344 249.652344 385.582031 C 249.554688 390.171875 245.207031 393.96875 245.207031 393.96875 Z M 228.4375 403.601562 " fill-opacity="1" fill-rule="nonzero"/><path fill="#ffffff" d="M 236.800781 399.199219 C 236.6875 399.199219 236.585938 399.160156 236.5 399.085938 C 236.417969 399.011719 236.367188 398.917969 236.351562 398.804688 C 235.0625 388.136719 238.148438 369.722656 240.671875 364.253906 C 240.714844 364.125 240.800781 364.035156 240.929688 363.984375 C 241.054688 363.933594 241.179688 363.9375 241.300781 364 C 241.414062 364.050781 241.492188 364.136719 241.535156 364.25 C 241.578125 364.367188 241.570312 364.484375 241.515625 364.59375 C 239.023438 369.996094 236.042969 388.460938 237.277344 398.660156 C 237.289062 398.78125 237.257812 398.890625 237.179688 398.988281 C 237.105469 399.085938 237.003906 399.140625 236.882812 399.15625 Z M 236.800781 399.199219 " fill-opacity="1" fill-rule="nonzero"/><path fill="#ffffff" d="M 236.558594 390.890625 C 236.488281 390.894531 236.421875 390.878906 236.359375 390.847656 C 233.238281 389.328125 231.257812 383.898438 231.175781 383.648438 C 231.128906 383.53125 231.132812 383.414062 231.183594 383.296875 C 231.234375 383.183594 231.320312 383.101562 231.441406 383.058594 C 231.558594 383.015625 231.675781 383.023438 231.789062 383.078125 C 231.90625 383.132812 231.980469 383.222656 232.019531 383.339844 C 232.019531 383.394531 233.957031 388.652344 236.753906 390.011719 C 236.972656 390.113281 237.050781 390.285156 236.996094 390.515625 C 236.945312 390.75 236.796875 390.867188 236.558594 390.867188 Z M 236.558594 390.890625 " fill-opacity="1" fill-rule="nonzero"/><path fill="#ffffff" d="M 236.503906 394.492188 C 236.296875 394.492188 236.160156 394.398438 236.089844 394.203125 C 236.042969 394.089844 236.042969 393.976562 236.089844 393.863281 C 236.136719 393.746094 236.21875 393.667969 236.332031 393.621094 C 241.589844 391.511719 244.863281 385.257812 244.898438 385.1875 C 244.957031 385.074219 245.046875 385 245.164062 384.964844 C 245.28125 384.925781 245.398438 384.9375 245.507812 384.992188 C 245.617188 385.050781 245.691406 385.136719 245.730469 385.257812 C 245.769531 385.375 245.757812 385.488281 245.703125 385.601562 C 245.558594 385.871094 242.238281 392.222656 236.703125 394.457031 C 236.636719 394.484375 236.574219 394.5 236.503906 394.492188 Z M 236.503906 394.492188 " fill-opacity="1" fill-rule="nonzero"/><path fill="#d86634" d="M 420.21875 346.074219 C 420.21875 346.074219 416.289062 339.699219 415.898438 332.78125 C 415.511719 325.859375 417.035156 322.976562 419.121094 322.152344 C 421.210938 321.324219 421.371094 323.871094 422.445312 325.371094 C 423.515625 326.875 425.703125 326.019531 426.511719 321.332031 C 427.320312 316.640625 430.273438 308.730469 436.410156 307.191406 C 443.160156 305.519531 439.542969 313.4375 437.84375 316.527344 C 436.140625 319.613281 434.828125 323.824219 435.945312 324.96875 C 437.058594 326.109375 438.796875 323.996094 440.445312 325.957031 C 442.449219 328.324219 436.214844 336.847656 432.632812 338.910156 Z M 420.21875 346.074219 " fill-opacity="1" fill-rule="nonzero"/><path fill="#ffffff" d="M 425.613281 343.398438 C 425.488281 343.394531 425.382812 343.347656 425.296875 343.253906 C 425.214844 343.164062 425.175781 343.054688 425.179688 342.929688 C 425.484375 337.363281 426.492188 331.929688 428.199219 326.621094 C 429.90625 321.3125 432.261719 316.3125 435.257812 311.613281 C 435.332031 311.507812 435.429688 311.445312 435.554688 311.425781 C 435.675781 311.40625 435.789062 311.4375 435.890625 311.511719 C 435.988281 311.585938 436.046875 311.683594 436.066406 311.804688 C 436.085938 311.921875 436.058594 312.035156 435.988281 312.132812 C 433.042969 316.765625 430.730469 321.691406 429.054688 326.917969 C 427.375 332.144531 426.386719 337.496094 426.089844 342.976562 C 426.082031 343.101562 426.03125 343.203125 425.9375 343.285156 C 425.84375 343.371094 425.734375 343.40625 425.613281 343.398438 Z M 425.613281 343.398438 " fill-opacity="1" fill-rule="nonzero"/><path fill="#ffffff" d="M 426.125 338.082031 C 426.046875 338.078125 425.976562 338.0625 425.910156 338.027344 C 423.386719 336.632812 421.992188 332.492188 421.9375 332.320312 C 421.898438 332.203125 421.902344 332.085938 421.957031 331.972656 C 422.011719 331.863281 422.101562 331.785156 422.21875 331.746094 C 422.335938 331.707031 422.449219 331.714844 422.5625 331.769531 C 422.671875 331.828125 422.746094 331.914062 422.785156 332.03125 C 422.785156 332.03125 424.136719 336.019531 426.386719 337.234375 C 426.492188 337.296875 426.5625 337.386719 426.59375 337.507812 C 426.628906 337.625 426.613281 337.738281 426.554688 337.847656 C 426.464844 338.019531 426.320312 338.097656 426.125 338.082031 Z M 426.125 338.082031 " fill-opacity="1" fill-rule="nonzero"/><path fill="#ffffff" d="M 426.566406 335.351562 C 426.332031 335.351562 426.1875 335.238281 426.132812 335.011719 C 426.101562 334.890625 426.117188 334.777344 426.183594 334.671875 C 426.246094 334.566406 426.335938 334.5 426.457031 334.472656 C 432.957031 332.824219 435.207031 329.421875 435.222656 329.386719 C 435.289062 329.28125 435.386719 329.214844 435.507812 329.1875 C 435.628906 329.160156 435.742188 329.179688 435.847656 329.246094 C 435.953125 329.316406 436.019531 329.410156 436.046875 329.53125 C 436.074219 329.652344 436.054688 329.765625 435.988281 329.871094 C 435.890625 330.027344 433.550781 333.597656 426.683594 335.34375 Z M 426.566406 335.351562 " fill-opacity="1" fill-rule="nonzero"/><path fill="#d86634" d="M 322.300781 332.085938 C 322.300781 332.085938 313.667969 329.980469 313.21875 313.816406 C 312.742188 296.375 315.335938 276.015625 305.121094 274.371094 C 294.90625 272.722656 289.234375 285.167969 289.359375 299.703125 C 289.476562 312.429688 294.605469 340.058594 322.265625 345.476562 Z M 322.300781 332.085938 " fill-opacity="1" fill-rule="nonzero"/><path fill="#000000" d="M 322.300781 332.085938 C 322.300781 332.085938 313.667969 329.980469 313.21875 313.816406 C 312.742188 296.375 315.335938 276.015625 305.121094 274.371094 C 294.90625 272.722656 289.234375 285.167969 289.359375 299.703125 C 289.476562 312.429688 294.605469 340.058594 322.265625 345.476562 Z M 322.300781 332.085938 " fill-opacity="0.2" fill-rule="nonzero"/><path fill="#ffffff" d="M 322.300781 343.824219 L 322.21875 343.824219 C 316 342.6875 310.933594 339.257812 307.164062 333.644531 C 295.984375 316.964844 299.503906 285.828125 300.664062 280.390625 C 300.691406 280.269531 300.757812 280.175781 300.859375 280.109375 C 300.960938 280.039062 301.074219 280.015625 301.195312 280.039062 C 301.316406 280.070312 301.410156 280.136719 301.480469 280.238281 C 301.546875 280.34375 301.570312 280.457031 301.546875 280.578125 C 300.402344 285.980469 296.902344 316.722656 307.910156 333.140625 C 308.710938 334.414062 309.632812 335.589844 310.679688 336.671875 C 311.726562 337.75 312.871094 338.714844 314.117188 339.554688 C 315.363281 340.398438 316.679688 341.105469 318.074219 341.671875 C 319.464844 342.242188 320.902344 342.660156 322.382812 342.929688 C 322.503906 342.953125 322.601562 343.015625 322.671875 343.121094 C 322.742188 343.226562 322.765625 343.339844 322.742188 343.460938 C 322.722656 343.566406 322.671875 343.65625 322.585938 343.722656 C 322.503906 343.792969 322.40625 343.824219 322.300781 343.824219 Z M 322.300781 343.824219 " fill-opacity="1" fill-rule="nonzero"/><path fill="#d86634" d="M 322.300781 385.304688 C 313.382812 386.507812 298.898438 386.492188 290.539062 379.902344 C 282.179688 373.316406 283.925781 367.644531 287.136719 365.277344 C 290.351562 362.910156 293.140625 360.210938 287.613281 354.957031 C 282.089844 349.699219 273.214844 341.257812 270.335938 328.59375 C 267.453125 315.929688 268.875 308.011719 274.527344 305.375 C 280.007812 302.820312 281.457031 306.886719 284.816406 315.273438 C 288.171875 323.664062 295.722656 316.472656 302.183594 319.089844 C 308.648438 321.710938 308.386719 326.894531 308.792969 331.347656 C 309.195312 335.804688 311.328125 337.035156 314.992188 337.035156 C 318.65625 337.035156 322.300781 339.140625 322.300781 343.335938 Z M 322.300781 385.304688 " fill-opacity="1" fill-rule="nonzero"/><path fill="#ffffff" d="M 322.300781 370.597656 C 322.261719 370.605469 322.222656 370.605469 322.183594 370.597656 C 321.796875 370.488281 312.570312 367.808594 299.132812 355.46875 C 284.824219 342.328125 278.074219 322.617188 278.003906 322.421875 C 277.964844 322.300781 277.976562 322.1875 278.03125 322.078125 C 278.089844 321.96875 278.175781 321.894531 278.289062 321.851562 C 278.40625 321.816406 278.519531 321.824219 278.632812 321.875 C 278.742188 321.929688 278.816406 322.015625 278.855469 322.132812 C 278.921875 322.332031 285.605469 341.824219 299.746094 354.800781 C 312.996094 366.980469 322.328125 369.707031 322.425781 369.734375 C 322.546875 369.769531 322.636719 369.839844 322.695312 369.949219 C 322.753906 370.058594 322.765625 370.171875 322.730469 370.292969 C 322.664062 370.5 322.519531 370.601562 322.300781 370.597656 Z M 322.300781 370.597656 " fill-opacity="1" fill-rule="nonzero"/><path fill="#ffffff" d="M 302.886719 358.601562 C 302.679688 358.605469 302.542969 358.507812 302.472656 358.3125 C 299.585938 350.894531 298.925781 335.03125 298.875 334.355469 C 298.871094 334.230469 298.910156 334.125 298.996094 334.035156 C 299.078125 333.941406 299.183594 333.894531 299.304688 333.886719 C 299.425781 333.886719 299.53125 333.929688 299.621094 334.011719 C 299.710938 334.09375 299.761719 334.199219 299.773438 334.320312 C 299.773438 334.480469 300.449219 350.707031 303.285156 357.988281 C 303.328125 358.105469 303.328125 358.222656 303.273438 358.335938 C 303.222656 358.449219 303.140625 358.53125 303.023438 358.574219 C 302.980469 358.589844 302.933594 358.597656 302.886719 358.601562 Z M 302.886719 358.601562 " fill-opacity="1" fill-rule="nonzero"/><path fill="#ffffff" d="M 302.816406 369.265625 C 301.984375 369.273438 301.15625 369.230469 300.332031 369.140625 C 300.207031 369.125 300.105469 369.070312 300.027344 368.96875 C 299.949219 368.871094 299.917969 368.761719 299.933594 368.636719 C 299.949219 368.511719 300.003906 368.410156 300.105469 368.332031 C 300.203125 368.253906 300.316406 368.222656 300.4375 368.238281 C 300.519531 368.238281 308.898438 369.195312 312.742188 365.277344 C 312.828125 365.179688 312.933594 365.125 313.066406 365.121094 C 313.195312 365.113281 313.308594 365.15625 313.402344 365.25 C 313.496094 365.339844 313.539062 365.453125 313.535156 365.582031 C 313.53125 365.714844 313.480469 365.824219 313.382812 365.910156 C 310.601562 368.78125 305.75 369.265625 302.816406 369.265625 Z M 302.816406 369.265625 " fill-opacity="1" fill-rule="nonzero"/><path fill="#e0e0e0" d="M 296.335938 198.839844 L 295.363281 193.234375 L 290.359375 196.527344 C 289.898438 195.617188 289.261719 194.847656 288.460938 194.214844 L 290.855469 187.734375 L 286.355469 186.738281 L 283.058594 193.035156 C 281.863281 193.238281 280.71875 193.609375 279.632812 194.152344 L 278.199219 189.402344 L 272.855469 193.601562 L 273.207031 199.183594 C 272.113281 200.40625 271.132812 201.707031 270.253906 203.089844 L 265.84375 202.863281 L 262.746094 209.804688 L 266.535156 211.421875 C 266.140625 212.863281 265.890625 214.328125 265.789062 215.816406 L 260.972656 220.242188 L 261.9375 225.859375 L 266.949219 222.566406 C 267.410156 223.476562 268.042969 224.242188 268.847656 224.871094 L 266.5 231.359375 L 271 232.347656 L 275.714844 227.757812 C 276.804688 227.585938 276.535156 225.535156 277.722656 224.949219 L 279.15625 229.683594 L 284.492188 225.492188 L 284.355469 223.292969 C 285.4375 222.089844 289.523438 219.433594 290.40625 218.046875 L 291.511719 216.246094 L 294.605469 209.308594 L 293.167969 206.699219 L 291.566406 203.296875 Z M 280 217.300781 C 275.894531 220.523438 274.601562 221.234375 273.90625 216.921875 C 273.214844 212.613281 275.5625 206.058594 279.667969 202.828125 C 283.769531 199.597656 285.335938 199.371094 286.074219 203.675781 C 286.8125 207.976562 284.113281 214.113281 280 217.300781 Z M 280 217.300781 " fill-opacity="1" fill-rule="nonzero"/><path fill="#f5f5f5" d="M 286.390625 186.738281 L 292.230469 190.101562 L 288.9375 196.382812 L 283.097656 193.019531 Z M 286.390625 186.738281 " fill-opacity="1" fill-rule="nonzero"/><path fill="#f5f5f5" d="M 301.203125 196.601562 L 296.199219 199.894531 L 290.359375 196.527344 L 295.363281 193.234375 Z M 301.203125 196.601562 " fill-opacity="1" fill-rule="nonzero"/><path fill="#e0e0e0" d="M 300.402344 212.648438 L 296.613281 211.035156 L 290.773438 207.671875 L 294.5625 209.28125 Z M 300.402344 212.648438 " fill-opacity="1" fill-rule="nonzero"/><path fill="#e0e0e0" d="M 266.492188 231.359375 L 272.332031 234.714844 L 274.726562 228.234375 L 268.886719 224.871094 Z M 266.492188 231.359375 " fill-opacity="1" fill-rule="nonzero"/><path fill="#e0e0e0" d="M 284.941406 233.050781 L 279.109375 229.683594 L 277.679688 224.949219 L 283.519531 228.316406 Z M 284.941406 233.050781 " fill-opacity="1" fill-rule="nonzero"/><path fill="#ebebeb" d="M 302.167969 202.207031 L 301.203125 196.601562 L 296.199219 199.894531 C 295.734375 198.984375 295.097656 198.210938 294.292969 197.582031 L 296.6875 191.101562 L 292.230469 190.101562 L 288.929688 196.402344 C 287.730469 196.605469 286.585938 196.976562 285.5 197.519531 L 284.078125 192.785156 L 278.730469 196.988281 L 279.082031 202.566406 C 277.992188 203.796875 277.007812 205.109375 276.128906 206.5 L 271.710938 206.277344 L 268.617188 213.214844 L 272.40625 214.835938 C 272.011719 216.277344 271.761719 217.742188 271.65625 219.234375 L 266.851562 223.601562 L 267.8125 229.214844 L 272.820312 225.921875 C 273.285156 226.832031 273.921875 227.597656 274.726562 228.226562 L 272.332031 234.707031 L 276.832031 235.707031 L 280.125 229.40625 C 281.328125 229.207031 282.476562 228.832031 283.5625 228.28125 L 284.988281 233.015625 L 290.332031 228.820312 L 289.980469 223.242188 C 291.070312 222.019531 292.054688 220.71875 292.933594 219.335938 L 297.351562 219.550781 L 300.449219 212.613281 L 296.605469 211 C 297.003906 209.558594 297.257812 208.089844 297.363281 206.597656 Z M 285.851562 220.703125 C 281.753906 223.925781 277.832031 223.050781 277.085938 218.75 C 276.335938 214.449219 279.0625 208.335938 283.167969 205.113281 C 287.273438 201.890625 291.1875 202.773438 291.933594 207.078125 C 292.679688 211.378906 289.953125 217.480469 285.851562 220.703125 Z M 285.851562 220.703125 " fill-opacity="1" fill-rule="nonzero"/><path fill="#f5f5f5" d="M 284.078125 192.765625 L 278.238281 189.402344 L 272.890625 193.601562 L 278.730469 196.96875 Z M 284.078125 192.765625 " fill-opacity="1" fill-rule="nonzero"/><path fill="#e0e0e0" d="M 272.890625 193.601562 L 273.242188 199.183594 L 279.082031 202.550781 L 278.730469 196.96875 Z M 272.890625 193.601562 " fill-opacity="1" fill-rule="nonzero"/><path fill="#f5f5f5" d="M 276.128906 206.457031 L 270.289062 203.089844 L 265.878906 202.875 L 271.710938 206.238281 Z M 276.128906 206.457031 " fill-opacity="1" fill-rule="nonzero"/><path fill="#e0e0e0" d="M 265.878906 202.875 L 262.785156 209.804688 L 268.617188 213.167969 L 271.710938 206.238281 Z M 265.878906 202.875 " fill-opacity="1" fill-rule="nonzero"/><path fill="#f5f5f5" d="M 271.65625 219.179688 L 265.824219 215.816406 L 261.011719 220.242188 L 266.84375 223.609375 Z M 271.65625 219.179688 " fill-opacity="1" fill-rule="nonzero"/><path fill="#e0e0e0" d="M 267.8125 229.226562 L 261.972656 225.859375 L 261.011719 220.242188 L 266.84375 223.609375 Z M 267.8125 229.226562 " fill-opacity="1" fill-rule="nonzero"/><path fill="#f5f5f5" d="M 292.230469 190.101562 L 286.390625 186.738281 L 290.855469 187.734375 L 296.6875 191.101562 Z M 292.230469 190.101562 " fill-opacity="1" fill-rule="nonzero"/><path fill="#e0e0e0" d="M 270.179688 173.390625 L 270.179688 165.011719 L 263.511719 168.015625 C 263.15625 166.582031 262.554688 165.261719 261.710938 164.046875 L 265.914062 155.578125 L 260.785156 152.617188 L 255.546875 160.492188 C 254.074219 160.363281 252.628906 160.503906 251.210938 160.914062 L 250.472656 153.632812 L 243.21875 157.828125 L 242.488281 165.929688 C 240.90625 167.328125 239.460938 168.859375 238.148438 170.519531 L 232.914062 168.71875 L 227.78125 177.609375 L 231.976562 181.210938 C 231.199219 183.175781 230.601562 185.191406 230.175781 187.257812 L 223.507812 191.949219 L 223.507812 200.335938 L 230.175781 197.328125 C 230.53125 198.761719 231.132812 200.085938 231.976562 201.296875 L 227.800781 209.777344 L 232.929688 212.738281 L 238.167969 204.863281 C 239.640625 204.992188 241.085938 204.847656 242.507812 204.4375 L 243.234375 211.71875 L 250.488281 207.527344 L 251.226562 199.425781 C 253.53125 198.585938 255.46875 197.222656 257.042969 195.339844 L 260.804688 196.664062 L 265.933594 187.78125 L 262.785156 185.082031 C 263.472656 182.808594 263.722656 180.488281 263.53125 178.125 Z M 246.84375 194.324219 C 241.28125 197.535156 237.84375 195.222656 237.84375 188.824219 C 237.84375 182.425781 242.445312 174.515625 248.015625 171.300781 C 253.585938 168.089844 256.953125 170.402344 256.953125 176.855469 C 256.953125 183.308594 252.414062 191.101562 246.84375 194.324219 Z M 246.84375 194.324219 " fill-opacity="1" fill-rule="nonzero"/><path fill="#f5f5f5" d="M 266.617188 155.972656 L 260.785156 152.617188 L 255.546875 160.492188 L 261.378906 163.859375 Z M 266.617188 155.972656 " fill-opacity="1" fill-rule="nonzero"/><path fill="#f5f5f5" d="M 276.023438 168.375 L 270.179688 165.011719 L 263.511719 168.015625 L 269.351562 171.382812 Z M 276.023438 168.375 " fill-opacity="1" fill-rule="nonzero"/><path fill="#e0e0e0" d="M 249.050781 215.085938 L 243.21875 211.71875 L 242.488281 204.4375 L 248.320312 207.804688 Z M 249.050781 215.085938 " fill-opacity="1" fill-rule="nonzero"/><path fill="#e0e0e0" d="M 227.773438 209.777344 L 233.613281 213.140625 L 237.816406 204.671875 L 231.976562 201.308594 Z M 227.773438 209.777344 " fill-opacity="1" fill-rule="nonzero"/><path fill="#ebebeb" d="M 276.023438 176.800781 L 276.023438 168.421875 L 269.351562 171.402344 C 269 169.964844 268.402344 168.640625 267.554688 167.429688 L 271.757812 158.960938 L 266.625 155.992188 L 261.386719 163.875 C 259.914062 163.742188 258.46875 163.882812 257.050781 164.300781 L 256.3125 157 L 249.058594 161.195312 L 248.320312 169.292969 C 246.742188 170.699219 245.296875 172.226562 243.980469 173.882812 L 238.746094 172.085938 L 233.613281 180.976562 L 237.816406 184.578125 C 237.035156 186.539062 236.4375 188.554688 236.015625 190.625 L 229.347656 195.3125 L 229.347656 203.703125 L 236.015625 200.695312 C 236.371094 202.128906 236.96875 203.453125 237.816406 204.664062 L 233.613281 213.132812 L 238.746094 216.09375 L 243.980469 208.21875 C 245.453125 208.347656 246.902344 208.207031 248.320312 207.796875 L 249.058594 215.078125 L 256.3125 210.882812 L 257.042969 202.785156 C 258.625 201.382812 260.070312 199.851562 261.378906 198.195312 L 266.617188 199.992188 L 271.746094 191.109375 L 267.542969 187.511719 C 268.324219 185.546875 268.925781 183.53125 269.34375 181.460938 Z M 252.683594 197.734375 C 247.113281 200.949219 242.597656 198.335938 242.597656 191.910156 C 242.597656 185.484375 247.097656 177.664062 252.683594 174.441406 C 258.273438 171.21875 262.765625 173.839844 262.765625 180.265625 C 262.765625 186.691406 258.246094 194.46875 252.683594 197.6875 Z M 252.683594 197.734375 " fill-opacity="1" fill-rule="nonzero"/><path fill="#f0f0f0" d="M 238.148438 170.535156 L 243.980469 173.902344 L 238.746094 172.074219 L 232.914062 168.699219 Z M 238.148438 170.535156 " fill-opacity="1" fill-rule="nonzero"/><path fill="#f5f5f5" d="M 227.78125 177.605469 L 232.910156 168.707031 L 238.75 172.078125 L 233.621094 180.972656 Z M 227.78125 177.605469 " fill-opacity="1" fill-rule="nonzero"/><path fill="#e0e0e0" d="M 227.773438 177.59375 L 233.613281 180.957031 L 237.816406 184.578125 L 231.976562 181.21875 Z M 227.773438 177.59375 " fill-opacity="1" fill-rule="nonzero"/><path fill="#f5f5f5" d="M 230.175781 187.265625 L 236.015625 190.632812 L 229.347656 195.324219 L 223.507812 191.957031 Z M 230.175781 187.265625 " fill-opacity="1" fill-rule="nonzero"/><path fill="#e0e0e0" d="M 223.507812 191.957031 L 229.347656 195.324219 L 229.347656 203.710938 L 223.507812 200.34375 Z M 223.507812 191.957031 " fill-opacity="1" fill-rule="nonzero"/><path fill="#f5f5f5" d="M 256.3125 157 L 250.472656 153.632812 L 243.21875 157.828125 L 249.050781 161.195312 Z M 256.3125 157 " fill-opacity="1" fill-rule="nonzero"/><path fill="#e0e0e0" d="M 331.191406 397.34375 L 415.792969 348.492188 C 415.984375 348.425781 416.136719 348.308594 416.253906 348.144531 C 416.371094 347.980469 416.429688 347.796875 416.429688 347.59375 C 416.429688 347.390625 416.371094 347.207031 416.253906 347.042969 C 416.136719 346.875 415.984375 346.761719 415.792969 346.695312 L 407.972656 342.195312 C 407.480469 341.945312 406.960938 341.824219 406.410156 341.824219 C 405.859375 341.824219 405.339844 341.945312 404.847656 342.195312 L 320.222656 391 C 320.03125 391.066406 319.875 391.183594 319.757812 391.347656 C 319.640625 391.515625 319.582031 391.699219 319.582031 391.902344 C 319.582031 392.101562 319.640625 392.285156 319.757812 392.453125 C 319.875 392.617188 320.03125 392.734375 320.222656 392.800781 L 328.070312 397.300781 C 328.558594 397.554688 329.074219 397.6875 329.625 397.695312 C 330.175781 397.703125 330.699219 397.585938 331.191406 397.34375 Z M 331.191406 397.34375 " fill-opacity="1" fill-rule="nonzero"/><path fill="#455a64" d="M 413.46875 159.878906 L 337.1875 203.925781 C 336.035156 204.675781 335.117188 205.648438 334.429688 206.835938 C 333.746094 208.023438 333.363281 209.304688 333.289062 210.675781 L 333.289062 391.640625 C 333.289062 394.125 335.035156 395.132812 337.1875 393.890625 L 413.46875 349.84375 C 414.621094 349.09375 415.542969 348.125 416.226562 346.933594 C 416.914062 345.746094 417.292969 344.464844 417.367188 343.09375 L 417.367188 162.128906 C 417.367188 159.644531 415.628906 158.636719 413.46875 159.878906 Z M 413.46875 159.878906 " fill-opacity="1" fill-rule="nonzero"/><path fill="#37474f" d="M 337.1875 203.925781 L 413.46875 159.878906 C 415.394531 158.765625 416.988281 159.457031 417.3125 161.390625 C 417.132812 160.160156 416.707031 159.023438 416.035156 157.976562 C 415.367188 156.925781 414.511719 156.0625 413.46875 155.378906 L 410.300781 153.582031 C 409.078125 152.960938 407.777344 152.648438 406.40625 152.648438 C 405.03125 152.648438 403.734375 152.960938 402.507812 153.582031 L 326.214844 197.589844 C 325.046875 198.324219 324.128906 199.292969 323.460938 200.496094 L 334.433594 206.796875 C 335.101562 205.601562 336.019531 204.644531 337.1875 203.925781 Z M 337.1875 203.925781 " fill-opacity="1" fill-rule="nonzero"/><path fill="#263238" d="M 322.300781 385.304688 C 322.375 386.675781 322.757812 387.953125 323.441406 389.144531 C 324.128906 390.332031 325.046875 391.304688 326.199219 392.054688 L 329.375 393.851562 C 330.488281 394.410156 331.664062 394.714844 332.90625 394.769531 C 334.148438 394.820312 335.347656 394.617188 336.503906 394.160156 C 334.703125 394.863281 333.269531 393.828125 333.269531 391.601562 L 333.269531 210.675781 C 333.316406 209.296875 333.699219 208.015625 334.414062 206.832031 L 323.445312 200.535156 C 322.738281 201.703125 322.355469 202.972656 322.300781 204.339844 Z M 322.300781 385.304688 " fill-opacity="1" fill-rule="nonzero"/><path fill="#ffffff" d="M 339.285156 228.039062 L 411.398438 186.414062 C 412.695312 185.675781 413.742188 186.277344 413.742188 187.761719 L 413.742188 321.699219 C 413.695312 322.523438 413.46875 323.292969 413.054688 324.007812 C 412.644531 324.71875 412.089844 325.300781 411.398438 325.75 L 339.308594 367.375 C 338.015625 368.121094 336.96875 367.519531 336.96875 366.027344 L 336.96875 232.085938 C 337.011719 231.265625 337.238281 230.5 337.644531 229.785156 C 338.050781 229.074219 338.597656 228.488281 339.285156 228.039062 Z M 339.285156 228.039062 " fill-opacity="1" fill-rule="nonzero"/><path fill="#37474f" d="M 375.328125 188.761719 C 374.925781 189.027344 374.601562 189.367188 374.363281 189.785156 C 374.121094 190.203125 373.988281 190.65625 373.960938 191.136719 C 373.960938 192.039062 374.574219 192.371094 375.328125 191.929688 C 375.734375 191.664062 376.058594 191.324219 376.296875 190.90625 C 376.539062 190.488281 376.671875 190.035156 376.695312 189.554688 C 376.695312 188.679688 376.085938 188.328125 375.328125 188.761719 Z M 375.328125 188.761719 " fill-opacity="1" fill-rule="nonzero"/><path fill="#37474f" d="M 375.328125 352.964844 C 374.542969 353.480469 373.824219 354.078125 373.179688 354.761719 C 372.535156 355.445312 371.976562 356.195312 371.507812 357.011719 C 371.039062 357.824219 370.671875 358.683594 370.402344 359.585938 C 370.136719 360.484375 369.980469 361.40625 369.929688 362.34375 C 369.929688 365.792969 372.347656 367.195312 375.328125 365.46875 C 376.113281 364.953125 376.832031 364.351562 377.476562 363.671875 C 378.121094 362.988281 378.679688 362.238281 379.148438 361.421875 C 379.617188 360.609375 379.984375 359.75 380.253906 358.847656 C 380.519531 357.949219 380.679688 357.027344 380.726562 356.089844 C 380.746094 352.640625 378.316406 351.238281 375.328125 352.964844 Z M 375.328125 352.964844 " fill-opacity="1" fill-rule="nonzero"/><path fill="#37474f" d="M 362.378906 202.695312 C 361.574219 203.226562 360.9375 203.910156 360.460938 204.746094 C 359.984375 205.585938 359.722656 206.484375 359.675781 207.445312 C 359.675781 209.191406 360.902344 209.902344 362.378906 209.03125 C 363.1875 208.503906 363.835938 207.820312 364.320312 206.980469 C 364.800781 206.144531 365.070312 205.242188 365.121094 204.277344 C 365.121094 202.53125 363.898438 201.820312 362.378906 202.695312 Z M 362.378906 202.695312 " fill-opacity="1" fill-rule="nonzero"/><path fill="#37474f" d="M 369.101562 202.097656 C 369.101562 203.269531 370 203.710938 371.054688 203.089844 L 389.054688 192.675781 C 389.617188 192.324219 390.074219 191.859375 390.417969 191.289062 C 390.761719 190.71875 390.957031 190.101562 391.007812 189.4375 C 391.007812 188.277344 390.105469 187.835938 389.054688 188.457031 L 371.054688 198.867188 C 370.488281 199.21875 370.035156 199.679688 369.691406 200.25 C 369.347656 200.820312 369.148438 201.4375 369.101562 202.097656 Z M 369.101562 202.097656 " fill-opacity="1" fill-rule="nonzero"/><path fill="#37474f" d="M 328.382812 233.832031 C 329.03125 234.253906 329.550781 234.800781 329.9375 235.46875 C 330.324219 236.140625 330.539062 236.859375 330.582031 237.632812 C 330.582031 239.035156 329.597656 239.601562 328.382812 238.902344 C 327.738281 238.476562 327.222656 237.929688 326.839844 237.261719 C 326.453125 236.59375 326.238281 235.875 326.199219 235.101562 C 326.199219 233.707031 327.179688 233.140625 328.382812 233.832031 Z M 328.382812 233.832031 " fill-opacity="1" fill-rule="nonzero"/><path fill="#37474f" d="M 328.382812 250.734375 C 329.03125 251.15625 329.550781 251.703125 329.9375 252.371094 C 330.324219 253.042969 330.539062 253.761719 330.582031 254.535156 C 330.582031 255.929688 329.597656 256.496094 328.382812 255.800781 C 327.738281 255.378906 327.222656 254.832031 326.839844 254.164062 C 326.453125 253.496094 326.238281 252.773438 326.199219 252.003906 C 326.199219 250.601562 327.179688 250.035156 328.382812 250.734375 Z M 328.382812 250.734375 " fill-opacity="1" fill-rule="nonzero"/><path fill="#455a64" d="M 327.699219 234.175781 C 328.347656 234.597656 328.867188 235.144531 329.253906 235.8125 C 329.640625 236.480469 329.855469 237.203125 329.894531 237.972656 C 329.894531 239.367188 328.914062 239.933594 327.699219 239.242188 C 327.050781 238.820312 326.535156 238.273438 326.148438 237.605469 C 325.761719 236.9375 325.546875 236.214844 325.503906 235.445312 C 325.511719 234.039062 326.496094 233.5 327.699219 234.175781 Z M 327.699219 234.175781 " fill-opacity="1" fill-rule="nonzero"/><path fill="#455a64" d="M 327.699219 251.070312 C 328.347656 251.492188 328.867188 252.039062 329.253906 252.707031 C 329.640625 253.378906 329.855469 254.101562 329.894531 254.875 C 329.894531 256.269531 328.914062 256.835938 327.699219 256.136719 C 327.050781 255.714844 326.53125 255.171875 326.144531 254.5 C 325.757812 253.832031 325.542969 253.109375 325.503906 252.335938 C 325.511719 250.941406 326.496094 250.375 327.699219 251.070312 Z M 327.699219 251.070312 " fill-opacity="1" fill-rule="nonzero"/><path fill="#ffffff" d="M 428.339844 192 C 428.339844 190.507812 427.292969 189.90625 426 190.652344 L 417.367188 195.628906 L 353.910156 232.277344 C 353.21875 232.726562 352.664062 233.308594 352.253906 234.019531 C 351.839844 234.734375 351.613281 235.503906 351.570312 236.328125 L 351.570312 370.226562 C 351.570312 371.722656 352.613281 372.324219 353.910156 371.578125 L 417.394531 334.921875 L 426 329.953125 C 426.691406 329.503906 427.242188 328.921875 427.652344 328.210938 C 428.066406 327.496094 428.292969 326.726562 428.339844 325.902344 Z M 428.339844 192 " fill-opacity="1" fill-rule="nonzero"/><path fill="#d86634" d="M 429.238281 192 C 429.296875 191.539062 429.222656 191.101562 429.015625 190.683594 C 428.808594 190.269531 428.503906 189.945312 428.101562 189.710938 C 427.699219 189.476562 427.265625 189.375 426.800781 189.40625 C 426.335938 189.433594 425.917969 189.589844 425.546875 189.867188 L 417.3125 194.628906 L 353.457031 231.53125 C 352.625 232.054688 351.960938 232.746094 351.464844 233.601562 C 350.972656 234.457031 350.707031 235.375 350.667969 236.363281 L 350.667969 370.226562 C 350.632812 370.6875 350.714844 371.121094 350.917969 371.53125 C 351.121094 371.945312 351.417969 372.273438 351.800781 372.523438 C 352.128906 372.714844 352.484375 372.808594 352.863281 372.800781 C 353.402344 372.785156 353.898438 372.640625 354.359375 372.363281 L 418.257812 335.460938 L 426.476562 330.71875 C 427.304688 330.1875 427.964844 329.496094 428.457031 328.640625 C 428.949219 327.789062 429.21875 326.871094 429.265625 325.886719 Z M 417.332031 333.921875 L 416.59375 334.355469 L 353.496094 370.785156 C 353.269531 370.960938 353.015625 371.015625 352.738281 370.949219 C 352.621094 370.875 352.503906 370.625 352.503906 370.210938 L 352.503906 236.328125 C 352.550781 235.664062 352.742188 235.046875 353.074219 234.472656 C 353.40625 233.894531 353.84375 233.421875 354.394531 233.050781 L 417.429688 196.601562 L 426.429688 191.390625 C 426.65625 191.214844 426.910156 191.160156 427.1875 191.226562 C 427.304688 191.300781 427.421875 191.550781 427.421875 191.964844 L 427.421875 325.902344 C 427.375 326.566406 427.183594 327.183594 426.851562 327.757812 C 426.519531 328.332031 426.078125 328.808594 425.53125 329.179688 L 417.3125 333.921875 Z M 417.332031 333.921875 " fill-opacity="1" fill-rule="nonzero"/><path fill="#d86634" d="M 389.953125 223.113281 C 398.054688 218.453125 404.578125 222.214844 404.578125 231.566406 C 404.578125 240.917969 398.027344 252.265625 389.953125 256.890625 C 381.878906 261.515625 375.328125 257.792969 375.328125 248.449219 C 375.328125 239.105469 381.878906 227.785156 389.953125 223.113281 Z M 389.953125 223.113281 " fill-opacity="1" fill-rule="nonzero"/><path fill="#d86634" d="M 389.953125 230.457031 C 392.574219 228.945312 394.695312 230.171875 394.695312 233.160156 C 394.652344 233.980469 394.511719 234.789062 394.277344 235.578125 C 394.042969 236.367188 393.71875 237.121094 393.308594 237.835938 C 392.894531 238.546875 392.40625 239.203125 391.839844 239.800781 C 391.273438 240.402344 390.644531 240.925781 389.953125 241.375 C 387.335938 242.886719 385.210938 241.664062 385.210938 238.675781 C 385.253906 237.851562 385.394531 237.046875 385.628906 236.253906 C 385.863281 235.464844 386.1875 234.714844 386.597656 234 C 387.011719 233.285156 387.5 232.628906 388.066406 232.03125 C 388.632812 231.433594 389.261719 230.910156 389.953125 230.457031 Z M 389.953125 230.457031 " fill-opacity="1" fill-rule="nonzero"/><path fill="#d86634" d="M 399.195312 246.585938 C 399.195312 241.617188 395.714844 239.601562 391.402344 242.085938 L 388.703125 243.644531 C 384.398438 246.128906 380.910156 252.175781 380.910156 257.144531 L 380.910156 258.484375 C 383.402344 259.304688 386.535156 258.863281 389.910156 256.890625 C 393.695312 254.554688 396.777344 251.503906 399.152344 247.738281 Z M 399.195312 246.585938 " fill-opacity="1" fill-rule="nonzero"/><path fill="#ffffff" d="M 389.953125 230.457031 C 392.574219 228.945312 394.695312 230.171875 394.695312 233.160156 C 394.652344 233.980469 394.511719 234.789062 394.277344 235.578125 C 394.042969 236.367188 393.71875 237.121094 393.308594 237.835938 C 392.894531 238.546875 392.40625 239.203125 391.839844 239.800781 C 391.273438 240.402344 390.644531 240.925781 389.953125 241.375 C 387.335938 242.886719 385.210938 241.664062 385.210938 238.675781 C 385.253906 237.851562 385.394531 237.046875 385.628906 236.253906 C 385.863281 235.464844 386.1875 234.714844 386.597656 234 C 387.011719 233.285156 387.5 232.628906 388.066406 232.03125 C 388.632812 231.433594 389.261719 230.910156 389.953125 230.457031 Z M 389.953125 230.457031 " fill-opacity="0.698" fill-rule="nonzero"/><path fill="#ffffff" d="M 399.195312 246.585938 C 399.195312 241.617188 395.714844 239.601562 391.402344 242.085938 L 388.703125 243.644531 C 384.398438 246.128906 380.910156 252.175781 380.910156 257.144531 L 380.910156 258.484375 C 383.402344 259.304688 386.535156 258.863281 389.910156 256.890625 C 393.695312 254.554688 396.777344 251.503906 399.152344 247.738281 Z M 399.195312 246.585938 " fill-opacity="0.698" fill-rule="nonzero"/><path fill="#d86634" d="M 361.65625 277.457031 L 380.476562 266.59375 C 381.375 266.097656 382.035156 266.496094 382.035156 267.492188 L 382.035156 268.113281 C 382.003906 268.664062 381.851562 269.175781 381.578125 269.652344 C 381.304688 270.125 380.9375 270.515625 380.476562 270.8125 L 361.65625 281.675781 C 360.800781 282.171875 360.101562 281.765625 360.101562 280.777344 L 360.101562 280.15625 C 360.128906 279.609375 360.28125 279.097656 360.554688 278.621094 C 360.832031 278.144531 361.199219 277.757812 361.65625 277.457031 Z M 361.65625 277.457031 " fill-opacity="1" fill-rule="nonzero"/><path fill="#000000" d="M 361.65625 277.457031 L 380.476562 266.59375 C 381.375 266.097656 382.035156 266.496094 382.035156 267.492188 L 382.035156 268.113281 C 382.003906 268.664062 381.851562 269.175781 381.578125 269.652344 C 381.304688 270.125 380.9375 270.515625 380.476562 270.8125 L 361.65625 281.675781 C 360.800781 282.171875 360.101562 281.765625 360.101562 280.777344 L 360.101562 280.15625 C 360.128906 279.609375 360.28125 279.097656 360.554688 278.621094 C 360.832031 278.144531 361.199219 277.757812 361.65625 277.457031 Z M 361.65625 277.457031 " fill-opacity="0.098" fill-rule="nonzero"/><path fill="#d86634" d="M 360.882812 290.570312 L 417.816406 257.703125 C 418.242188 257.449219 418.589844 257.648438 418.589844 258.152344 L 418.589844 264.792969 C 418.558594 265.371094 418.300781 265.820312 417.816406 266.144531 L 360.882812 299.011719 C 360.453125 299.261719 360.101562 299.054688 360.101562 298.5625 L 360.101562 291.917969 C 360.132812 291.335938 360.394531 290.886719 360.882812 290.570312 Z M 360.882812 290.570312 " fill-opacity="1" fill-rule="nonzero"/><path fill="#ffffff" d="M 360.882812 290.570312 L 417.816406 257.703125 C 418.242188 257.449219 418.589844 257.648438 418.589844 258.152344 L 418.589844 264.792969 C 418.558594 265.371094 418.300781 265.820312 417.816406 266.144531 L 360.882812 299.011719 C 360.453125 299.261719 360.101562 299.054688 360.101562 298.5625 L 360.101562 291.917969 C 360.132812 291.335938 360.394531 290.886719 360.882812 290.570312 Z M 360.882812 290.570312 " fill-opacity="0.2" fill-rule="nonzero"/><path fill="#d86634" d="M 361.65625 307.003906 L 380.476562 296.140625 C 381.375 295.644531 382.035156 296.050781 382.035156 297.039062 L 382.035156 297.660156 C 382.003906 298.210938 381.855469 298.722656 381.578125 299.199219 C 381.304688 299.675781 380.9375 300.0625 380.476562 300.363281 L 361.65625 311.222656 C 360.800781 311.726562 360.101562 311.324219 360.101562 310.324219 L 360.101562 309.703125 C 360.132812 309.15625 360.285156 308.644531 360.558594 308.167969 C 360.832031 307.691406 361.199219 307.304688 361.65625 307.003906 Z M 361.65625 307.003906 " fill-opacity="1" fill-rule="nonzero"/><path fill="#000000" d="M 361.65625 307.003906 L 380.476562 296.140625 C 381.375 295.644531 382.035156 296.050781 382.035156 297.039062 L 382.035156 297.660156 C 382.003906 298.210938 381.855469 298.722656 381.578125 299.199219 C 381.304688 299.675781 380.9375 300.0625 380.476562 300.363281 L 361.65625 311.222656 C 360.800781 311.726562 360.101562 311.324219 360.101562 310.324219 L 360.101562 309.703125 C 360.132812 309.15625 360.285156 308.644531 360.558594 308.167969 C 360.832031 307.691406 361.199219 307.304688 361.65625 307.003906 Z M 361.65625 307.003906 " fill-opacity="0.098" fill-rule="nonzero"/><path fill="#d86634" d="M 360.882812 320.117188 L 417.816406 287.25 C 418.242188 286.996094 418.589844 287.203125 418.589844 287.699219 L 418.589844 294.339844 C 418.558594 294.917969 418.300781 295.367188 417.816406 295.691406 L 360.882812 328.558594 C 360.453125 328.808594 360.101562 328.613281 360.101562 328.109375 L 360.101562 321.464844 C 360.132812 320.882812 360.394531 320.433594 360.882812 320.117188 Z M 360.882812 320.117188 " fill-opacity="1" fill-rule="nonzero"/><path fill="#ffffff" d="M 360.882812 320.117188 L 417.816406 287.25 C 418.242188 286.996094 418.589844 287.203125 418.589844 287.699219 L 418.589844 294.339844 C 418.558594 294.917969 418.300781 295.367188 417.816406 295.691406 L 360.882812 328.558594 C 360.453125 328.808594 360.101562 328.613281 360.101562 328.109375 L 360.101562 321.464844 C 360.132812 320.882812 360.394531 320.433594 360.882812 320.117188 Z M 360.882812 320.117188 " fill-opacity="0.2" fill-rule="nonzero"/><path fill="#d86634" d="M 383.589844 323.886719 L 406.089844 310.917969 C 406.992188 310.414062 407.65625 310.820312 407.65625 311.820312 L 407.65625 318.765625 C 407.625 319.316406 407.472656 319.828125 407.199219 320.304688 C 406.921875 320.78125 406.550781 321.167969 406.089844 321.464844 L 383.589844 334.445312 C 382.691406 334.9375 382.035156 334.535156 382.035156 333.542969 L 382.035156 326.585938 C 382.066406 326.039062 382.21875 325.527344 382.492188 325.054688 C 382.765625 324.578125 383.132812 324.1875 383.589844 323.886719 Z M 383.589844 323.886719 " fill-opacity="1" fill-rule="nonzero"/><path fill="#000000" d="M 383.589844 323.886719 L 406.089844 310.917969 C 406.992188 310.414062 407.65625 310.820312 407.65625 311.820312 L 407.65625 318.765625 C 407.625 319.316406 407.472656 319.828125 407.199219 320.304688 C 406.921875 320.78125 406.550781 321.167969 406.089844 321.464844 L 383.589844 334.445312 C 382.691406 334.9375 382.035156 334.535156 382.035156 333.542969 L 382.035156 326.585938 C 382.066406 326.039062 382.21875 325.527344 382.492188 325.054688 C 382.765625 324.578125 383.132812 324.1875 383.589844 323.886719 Z M 383.589844 323.886719 " fill-opacity="0.098" fill-rule="nonzero"/><path fill="#ffa8a7" d="M 436.871094 294.566406 C 436.871094 294.566406 425.820312 279.320312 425.171875 277.464844 C 424.65625 276.097656 425.171875 274.0625 425.332031 273.117188 C 425.496094 272.171875 425.636719 270.066406 425.800781 269.519531 C 426.070312 268.492188 424.746094 268.699219 424 269.636719 C 423.253906 270.570312 423 272.445312 422.613281 272.75 C 422.226562 273.054688 419.285156 268.761719 417.746094 266.78125 C 416.207031 264.800781 415.242188 263.597656 414.296875 264.335938 C 413.625 264.867188 414.128906 266.015625 415.242188 267.710938 C 415.894531 268.621094 416.496094 269.566406 417.042969 270.542969 C 417.214844 270.914062 416.296875 270.941406 415.800781 271.707031 C 415.414062 272.300781 415.800781 273.261719 415.261719 273.722656 C 415.09375 273.847656 414.957031 274 414.847656 274.175781 C 414.738281 274.355469 414.660156 274.546875 414.621094 274.75 C 414.582031 274.957031 414.578125 275.160156 414.617188 275.367188 C 414.652344 275.574219 414.722656 275.765625 414.828125 275.945312 C 415.839844 277.53125 417.109375 278.875 418.636719 279.976562 C 420.292969 281.121094 420.957031 281.523438 421.9375 283.082031 C 422.921875 284.636719 431.722656 300.542969 432.316406 301.496094 C 432.910156 302.449219 434.054688 304.394531 435.789062 304.449219 C 437.527344 304.5 451.746094 292.261719 452.476562 291.648438 C 454.816406 289.695312 455.5625 289.417969 455.960938 291.171875 C 456.097656 291.796875 456.199219 292.425781 456.265625 293.0625 C 456.542969 295.292969 458.066406 303.269531 458.066406 303.269531 C 458.066406 303.269531 465.265625 306.75 471.179688 305.070312 C 477.089844 303.386719 479.089844 300.875 479.089844 300.875 L 476.128906 296.050781 C 476.929688 294.0625 480.628906 285.996094 481.824219 280.355469 L 463.285156 277.355469 C 462.90625 277.277344 462.296875 277.125 461.484375 276.917969 C 460.46875 276.644531 457.886719 275.753906 455.933594 277.464844 C 449.558594 283.019531 436.886719 294.566406 436.886719 294.566406 " fill-opacity="1" fill-rule="nonzero"/><path fill="#37474f" d="M 473.625 388.113281 L 470.304688 392.726562 C 471.835938 393.441406 473.441406 393.789062 475.128906 393.761719 C 478.109375 393.871094 478.925781 392.863281 479.035156 392.664062 C 479.539062 391.585938 478.757812 389.640625 478.539062 387.96875 Z M 473.625 388.113281 " fill-opacity="1" fill-rule="nonzero"/><path fill="#37474f" d="M 470.496094 390.515625 C 470.496094 390.515625 466.460938 390.253906 463.679688 389.910156 C 460.898438 389.570312 458.695312 390.917969 459.34375 392.0625 C 459.992188 393.207031 461.53125 394.160156 463.925781 394.960938 C 465.96875 395.652344 468.425781 396.148438 470.546875 396.761719 C 472.671875 397.371094 474.148438 398.171875 475.382812 397.742188 C 476.757812 397.265625 477.351562 396.714844 477.234375 395.707031 C 476.933594 394.273438 476.5625 392.855469 476.121094 391.460938 Z M 470.496094 390.515625 " fill-opacity="1" fill-rule="nonzero"/><path fill="#f28f8f" d="M 479.035156 383.476562 C 479.035156 383.476562 478.53125 387.671875 478.496094 388.570312 C 478.460938 389.46875 474.398438 389.757812 473.625 388.113281 L 473.5 382.980469 Z M 479.035156 383.476562 " fill-opacity="1" fill-rule="nonzero"/><path fill="#ffa8a7" d="M 474.949219 386.050781 L 476.398438 392.421875 C 476.398438 392.421875 476.535156 393.195312 473.222656 393.691406 C 469.910156 394.1875 464.707031 391.953125 463.816406 391.503906 C 462.925781 391.054688 462.828125 390.144531 466.085938 390.324219 C 469.34375 390.503906 470.496094 390.515625 470.496094 390.515625 L 469.433594 387.699219 Z M 474.949219 386.050781 " fill-opacity="1" fill-rule="nonzero"/><path fill="#f28f8f" d="M 481.769531 280.300781 L 484.066406 279.660156 C 484.066406 279.660156 488.863281 294.84375 489.394531 296.3125 C 489.925781 297.777344 490.527344 299.328125 489.492188 301.136719 C 488.261719 303.285156 481.769531 311.933594 481.769531 311.933594 L 477.648438 307.902344 L 482.328125 299.335938 L 478.1875 290.964844 Z M 481.769531 280.300781 " fill-opacity="1" fill-rule="nonzero"/><path fill="#37474f" d="M 458.199219 260.582031 C 457.929688 260.078125 457.730469 259.546875 457.59375 258.988281 C 457.460938 258.433594 457.398438 257.871094 457.40625 257.296875 C 457.414062 256.726562 457.496094 256.164062 457.644531 255.609375 C 457.796875 255.058594 458.015625 254.535156 458.300781 254.039062 C 460.585938 249.800781 465.679688 247.738281 471.746094 248.519531 C 474.554688 248.890625 477.867188 251.222656 479.675781 254.703125 C 481.671875 258.566406 481.863281 266.339844 482.375 269.285156 Z M 458.199219 260.582031 " fill-opacity="1" fill-rule="nonzero"/><path fill="#ffa8a7" d="M 458.039062 262.246094 C 458.039062 262.246094 456.597656 264.992188 456.851562 265.242188 C 457.226562 265.464844 457.628906 265.613281 458.054688 265.695312 Z M 458.039062 262.246094 " fill-opacity="1" fill-rule="nonzero"/><path fill="#ffa8a7" d="M 462.414062 253.570312 C 460.847656 254.585938 458.144531 256.460938 458.03125 262.625 C 457.902344 268.925781 458.804688 271.003906 459.738281 271.730469 C 460.371094 272.226562 464.070312 271.976562 465.652344 271.605469 C 467.238281 271.238281 471.800781 268.976562 473.445312 265.550781 C 475.382812 261.515625 474.984375 255.648438 472.113281 253.847656 C 471.382812 253.417969 470.609375 253.082031 469.796875 252.847656 C 468.980469 252.613281 468.148438 252.480469 467.300781 252.457031 C 466.449219 252.433594 465.613281 252.515625 464.785156 252.703125 C 463.957031 252.890625 463.167969 253.179688 462.414062 253.570312 Z M 462.414062 253.570312 " fill-opacity="1" fill-rule="nonzero"/><path fill="#d86634" d="M 479.035156 300.839844 C 481.808594 305.160156 484.433594 308.9375 485.011719 313.816406 C 486.199219 324.066406 482.3125 335.785156 481.472656 343.371094 C 483.082031 345.578125 483.953125 348.042969 484.085938 350.769531 C 484.085938 353.910156 479.035156 383.476562 479.035156 383.476562 C 479.035156 383.476562 475.363281 384.59375 473.5 382.980469 L 470.035156 328.59375 L 471.835938 321.96875 Z M 479.035156 300.839844 " fill-opacity="1" fill-rule="nonzero"/><path fill="#000000" d="M 479.035156 300.839844 C 481.808594 305.160156 484.433594 308.9375 485.011719 313.816406 C 486.199219 324.066406 482.3125 335.785156 481.472656 343.371094 C 483.082031 345.578125 483.953125 348.042969 484.085938 350.769531 C 484.085938 353.910156 479.035156 383.476562 479.035156 383.476562 C 479.035156 383.476562 475.363281 384.59375 473.5 382.980469 L 470.035156 328.59375 L 471.835938 321.96875 Z M 479.035156 300.839844 " fill-opacity="0.2" fill-rule="nonzero"/><path fill="#d86634" d="M 470.035156 328.59375 L 471.835938 321.96875 C 475.292969 321.058594 478.59375 319.75 481.734375 318.039062 C 481.734375 318.039062 479.863281 321.449219 474.480469 323.320312 L 471.699219 331.824219 L 471.464844 351.308594 Z M 470.035156 328.59375 " fill-opacity="1" fill-rule="nonzero"/><path fill="#000000" d="M 470.035156 328.59375 L 471.835938 321.96875 C 475.292969 321.058594 478.59375 319.75 481.734375 318.039062 C 481.734375 318.039062 479.863281 321.449219 474.480469 323.320312 L 471.699219 331.824219 L 471.464844 351.308594 Z M 470.035156 328.59375 " fill-opacity="0.298" fill-rule="nonzero"/><path fill="#d86634" d="M 479.035156 300.839844 C 480.519531 303.269531 484.066406 307.410156 483.308594 311.394531 C 482.410156 316.21875 479.800781 319.613281 471.863281 321.96875 L 464.410156 348.96875 C 464.410156 348.96875 468.289062 352.570312 469.476562 356.054688 C 470.664062 359.535156 474.949219 386.070312 474.949219 386.070312 C 474.949219 386.070312 473.617188 388.238281 469.433594 387.714844 C 469.433594 387.714844 454.84375 354.414062 453.816406 352.246094 C 453.195312 351.148438 452.777344 349.976562 452.566406 348.730469 C 452.355469 347.488281 452.359375 346.242188 452.585938 345 C 453.042969 341.507812 457.984375 303.285156 457.984375 303.285156 Z M 479.035156 300.839844 " fill-opacity="1" fill-rule="nonzero"/><path fill="#000000" d="M 479.035156 300.839844 C 480.519531 303.269531 484.066406 307.410156 483.308594 311.394531 C 482.410156 316.21875 479.800781 319.613281 471.863281 321.96875 L 464.410156 348.96875 C 464.410156 348.96875 468.289062 352.570312 469.476562 356.054688 C 470.664062 359.535156 474.949219 386.070312 474.949219 386.070312 C 474.949219 386.070312 473.617188 388.238281 469.433594 387.714844 C 469.433594 387.714844 454.84375 354.414062 453.816406 352.246094 C 453.195312 351.148438 452.777344 349.976562 452.566406 348.730469 C 452.355469 347.488281 452.359375 346.242188 452.585938 345 C 453.042969 341.507812 457.984375 303.285156 457.984375 303.285156 Z M 479.035156 300.839844 " fill-opacity="0.2" fill-rule="nonzero"/><path fill="#d86634" d="M 481.769531 280.300781 L 463.230469 277.304688 C 462.851562 277.222656 462.242188 277.070312 461.429688 276.863281 C 461.429688 276.863281 460.640625 288.492188 455.878906 291.15625 C 455.996094 291.710938 456.09375 292.332031 456.183594 293.042969 C 456.464844 295.277344 457.984375 303.25 457.984375 303.25 C 457.984375 303.25 465.183594 306.734375 471.097656 305.050781 C 477.011719 303.367188 479.007812 300.855469 479.007812 300.855469 L 476.046875 296.03125 C 476.875 294.027344 480.601562 285.960938 481.769531 280.300781 Z M 481.769531 280.300781 " fill-opacity="1" fill-rule="nonzero"/><path fill="#ffffff" d="M 481.769531 280.300781 L 463.230469 277.304688 C 462.851562 277.222656 462.242188 277.070312 461.429688 276.863281 C 461.429688 276.863281 460.640625 288.492188 455.878906 291.15625 C 455.996094 291.710938 456.09375 292.332031 456.183594 293.042969 C 456.464844 295.277344 457.984375 303.25 457.984375 303.25 C 457.984375 303.25 465.183594 306.734375 471.097656 305.050781 C 477.011719 303.367188 479.007812 300.855469 479.007812 300.855469 L 476.046875 296.03125 C 476.875 294.027344 480.601562 285.960938 481.769531 280.300781 Z M 481.769531 280.300781 " fill-opacity="0.698" fill-rule="nonzero"/><path fill="#d86634" d="M 476.882812 294.117188 C 474.417969 295.597656 471.847656 296.867188 469.171875 297.921875 C 471.632812 297.875 473.9375 297.238281 476.074219 296.015625 Z M 476.882812 294.117188 " fill-opacity="1" fill-rule="nonzero"/><path fill="#37474f" d="M 461.953125 253.875 C 461.953125 253.875 461.054688 259.726562 463.175781 263.164062 C 463.175781 263.164062 463.96875 260.832031 465.941406 261.273438 C 467.910156 261.714844 468.019531 264.316406 466.632812 265.773438 C 466.273438 266.191406 465.832031 266.480469 465.304688 266.644531 C 464.777344 266.804688 464.25 266.816406 463.71875 266.675781 C 463.71875 266.675781 463.402344 270.90625 463.230469 274.449219 C 463.058594 277.996094 462.125 285.726562 466.113281 288.851562 C 470.097656 291.972656 480.105469 293.070312 484.796875 286.519531 C 487.40625 282.875 483.941406 276.429688 482.328125 269.203125 C 480.84375 262.5625 480.007812 252.714844 472.960938 251.132812 C 465.914062 249.546875 461.953125 253.875 461.953125 253.875 Z M 461.953125 253.875 " fill-opacity="1" fill-rule="nonzero"/><path fill="#ebebeb" d="M 487.808594 173.949219 L 486.324219 174.847656 C 486.449219 174.316406 486.519531 173.78125 486.53125 173.238281 C 486.53125 170.222656 484.417969 169.007812 481.808594 170.535156 C 481.007812 171.019531 480.308594 171.617188 479.710938 172.335938 C 479.710938 168.285156 476.867188 166.640625 473.355469 168.664062 C 472.429688 169.265625 471.589844 169.96875 470.832031 170.773438 C 470.070312 171.574219 469.414062 172.453125 468.863281 173.410156 C 468.3125 174.363281 467.878906 175.371094 467.5625 176.429688 C 467.25 177.488281 467.0625 178.570312 467.003906 179.671875 C 467.003906 179.878906 467.003906 180.078125 467.003906 180.273438 C 466.070312 180.15625 465.207031 180.355469 464.417969 180.867188 C 463.730469 181.316406 463.105469 181.839844 462.542969 182.433594 C 461.976562 183.03125 461.488281 183.683594 461.078125 184.394531 C 460.667969 185.105469 460.347656 185.851562 460.113281 186.640625 C 459.878906 187.425781 459.738281 188.230469 459.695312 189.050781 C 459.695312 189.429688 459.734375 189.808594 459.8125 190.183594 L 459.019531 190.640625 C 456.867188 191.882812 455.121094 194.304688 455.121094 196.042969 C 455.121094 197.78125 456.867188 198.195312 459.019531 196.941406 L 487.820312 180.335938 C 489.96875 179.09375 491.714844 176.675781 491.714844 174.9375 C 491.714844 173.199219 489.960938 172.695312 487.808594 173.949219 Z M 487.808594 173.949219 " fill-opacity="1" fill-rule="nonzero"/></svg>