<svg xmlns="http://www.w3.org/2000/svg" xmlns:xlink="http://www.w3.org/1999/xlink" width="100" zoomAndPan="magnify" viewBox="0 0 75 74.999997" height="100" preserveAspectRatio="xMidYMid meet" version="1.0"><defs><clipPath id="0ae1d5ad6d"><path d="M 9.226562 35 L 14 35 L 14 38 L 9.226562 38 Z M 9.226562 35 " clip-rule="nonzero"/></clipPath><clipPath id="052d6ec64d"><path d="M 33 10.460938 L 65.476562 10.460938 L 65.476562 54 L 33 54 Z M 33 10.460938 " clip-rule="nonzero"/></clipPath><clipPath id="6508f106a0"><path d="M 20 21 L 53 21 L 53 64.460938 L 20 64.460938 Z M 20 21 " clip-rule="nonzero"/></clipPath><clipPath id="e2deef2f35"><path d="M 9.226562 26 L 17 26 L 17 42 L 9.226562 42 Z M 9.226562 26 " clip-rule="nonzero"/></clipPath><clipPath id="ddfcfae3bd"><path d="M 9.226562 37 L 14 37 L 14 64.460938 L 9.226562 64.460938 Z M 9.226562 37 " clip-rule="nonzero"/></clipPath></defs><g clip-path="url(#0ae1d5ad6d)"><path fill="#adc178" d="M 9.285156 35.882812 L 9.285156 37.617188 L 13.660156 37.617188 L 13.660156 35.882812 L 11.585938 35.535156 L 9.285156 35.882812 " fill-opacity="1" fill-rule="nonzero"/></g><path fill="#737373" d="M 34.40625 11.859375 L 34.523438 52.449219 L 64.128906 52.449219 L 64.128906 11.859375 L 63.089844 11.511719 L 34.40625 11.859375 " fill-opacity="1" fill-rule="nonzero"/><g clip-path="url(#052d6ec64d)"><path fill="#737373" d="M 62.855469 41.507812 L 63.050781 44.09375 L 65.417969 46.160156 L 65.417969 12.136719 C 65.417969 11.210938 64.667969 10.460938 63.746094 10.460938 L 39.320312 10.460938 L 39.78125 12.390625 Z M 63.492188 40.746094 L 63.492188 51.574219 L 35.164062 51.574219 L 35.164062 12.390625 L 63.492188 12.390625 Z M 39.816406 10.460938 L 34.910156 10.460938 C 33.988281 10.460938 33.238281 11.210938 33.238281 12.136719 L 33.238281 51.832031 C 33.238281 52.753906 33.988281 53.503906 34.910156 53.503906 L 63.746094 53.503906 C 64.667969 53.503906 65.417969 52.753906 65.417969 51.832031 L 65.417969 41.742188 L 39.816406 10.460938 " fill-opacity="1" fill-rule="nonzero"/></g><path fill="#d86634" d="M 27.839844 17.378906 L 27.953125 57.96875 L 57.558594 57.96875 L 57.558594 17.378906 L 56.523438 17.03125 L 27.839844 17.378906 " fill-opacity="1" fill-rule="nonzero"/><path fill="#d86634" d="M 56.289062 47.027344 L 56.480469 49.613281 L 58.847656 51.679688 L 58.847656 17.65625 C 58.847656 16.730469 58.101562 15.980469 57.179688 15.980469 L 32.75 15.980469 L 33.210938 17.910156 Z M 56.925781 46.265625 L 56.925781 57.09375 L 28.59375 57.09375 L 28.59375 17.910156 L 56.925781 17.910156 Z M 33.246094 15.980469 L 28.339844 15.980469 C 27.417969 15.980469 26.671875 16.730469 26.671875 17.65625 L 26.671875 57.351562 C 26.671875 58.273438 27.417969 59.023438 28.339844 59.023438 L 57.179688 59.023438 C 58.101562 59.023438 58.847656 58.273438 58.847656 57.351562 L 58.847656 47.261719 L 33.246094 15.980469 " fill-opacity="1" fill-rule="nonzero"/><path fill="#adc178" d="M 21.265625 22.816406 L 21.378906 63.40625 L 50.984375 63.40625 L 50.984375 22.816406 L 49.945312 22.46875 L 21.265625 22.816406 " fill-opacity="1" fill-rule="nonzero"/><g clip-path="url(#6508f106a0)"><path fill="#adc178" d="M 49.714844 52.46875 L 49.90625 55.050781 L 52.273438 57.117188 L 52.273438 23.09375 C 52.273438 22.167969 51.523438 21.417969 50.605469 21.417969 L 26.175781 21.417969 L 26.636719 23.347656 Z M 50.347656 51.703125 L 50.347656 62.53125 L 22.019531 62.53125 L 22.019531 23.347656 L 50.347656 23.347656 Z M 26.671875 21.417969 L 21.765625 21.417969 C 20.84375 21.417969 20.097656 22.167969 20.097656 23.09375 L 20.097656 62.789062 C 20.097656 63.710938 20.84375 64.460938 21.765625 64.460938 L 50.605469 64.460938 C 51.523438 64.460938 52.273438 63.710938 52.273438 62.789062 L 52.273438 52.699219 L 26.671875 21.417969 " fill-opacity="1" fill-rule="nonzero"/></g><path fill="#ffffff" d="M 33.246094 27.070312 L 26.207031 27.070312 C 25.835938 27.070312 25.53125 27.375 25.53125 27.746094 C 25.53125 28.121094 25.835938 28.425781 26.207031 28.425781 L 46.164062 28.425781 C 46.535156 28.425781 46.835938 28.121094 46.835938 27.746094 C 46.835938 27.375 46.535156 27.070312 46.164062 27.070312 L 33.246094 27.070312 " fill-opacity="1" fill-rule="nonzero"/><path fill="#ffffff" d="M 46.164062 32.960938 L 26.207031 32.960938 C 25.835938 32.960938 25.53125 33.265625 25.53125 33.636719 C 25.53125 34.011719 25.835938 34.3125 26.207031 34.3125 L 46.164062 34.3125 C 46.535156 34.3125 46.835938 34.011719 46.835938 33.636719 C 46.835938 33.265625 46.535156 32.960938 46.164062 32.960938 " fill-opacity="1" fill-rule="nonzero"/><path fill="#ffffff" d="M 46.164062 38.855469 L 26.207031 38.855469 C 25.835938 38.855469 25.53125 39.15625 25.53125 39.53125 C 25.53125 39.902344 25.835938 40.207031 26.207031 40.207031 L 46.164062 40.207031 C 46.535156 40.207031 46.835938 39.902344 46.835938 39.53125 C 46.835938 39.15625 46.535156 38.855469 46.164062 38.855469 " fill-opacity="1" fill-rule="nonzero"/><path fill="#ffffff" d="M 46.164062 44.746094 L 26.207031 44.746094 C 25.835938 44.746094 25.53125 45.046875 25.53125 45.421875 C 25.53125 45.796875 25.835938 46.097656 26.207031 46.097656 L 46.164062 46.097656 C 46.535156 46.097656 46.835938 45.796875 46.835938 45.421875 C 46.835938 45.046875 46.535156 44.746094 46.164062 44.746094 " fill-opacity="1" fill-rule="nonzero"/><path fill="#ffffff" d="M 46.164062 50.636719 L 26.207031 50.636719 C 25.835938 50.636719 25.53125 50.941406 25.53125 51.3125 C 25.53125 51.683594 25.835938 51.988281 26.207031 51.988281 L 46.164062 51.988281 C 46.390625 51.988281 46.589844 51.875 46.710938 51.703125 C 46.789062 51.59375 46.835938 51.457031 46.835938 51.3125 C 46.835938 50.941406 46.535156 50.636719 46.164062 50.636719 " fill-opacity="1" fill-rule="nonzero"/><path fill="#ffffff" d="M 40.503906 56.527344 L 26.207031 56.527344 C 25.835938 56.527344 25.53125 56.828125 25.53125 57.203125 C 25.53125 57.578125 25.835938 57.878906 26.207031 57.878906 L 40.503906 57.878906 C 40.878906 57.878906 41.179688 57.578125 41.179688 57.203125 C 41.179688 57.175781 41.175781 57.148438 41.171875 57.117188 C 41.132812 56.785156 40.847656 56.527344 40.503906 56.527344 " fill-opacity="1" fill-rule="nonzero"/><g clip-path="url(#e2deef2f35)"><path fill="#737373" d="M 15.722656 28.824219 C 15.257812 28.824219 14.875 29.207031 14.875 29.675781 L 14.875 30.019531 L 13.652344 30.019531 L 13.652344 28.769531 C 13.652344 27.664062 12.75 26.757812 11.648438 26.757812 L 11.28125 26.757812 C 10.179688 26.757812 9.277344 27.664062 9.277344 28.769531 L 9.277344 35.941406 L 13.652344 35.941406 L 13.652344 30.976562 L 14.875 30.976562 L 14.875 40.449219 C 14.875 40.914062 15.257812 41.296875 15.722656 41.296875 C 16.1875 41.296875 16.570312 40.914062 16.570312 40.449219 L 16.570312 29.675781 C 16.570312 29.207031 16.1875 28.824219 15.722656 28.824219 " fill-opacity="1" fill-rule="nonzero"/></g><g clip-path="url(#ddfcfae3bd)"><path fill="#737373" d="M 9.277344 53.730469 C 9.277344 53.765625 9.28125 53.796875 9.28125 53.832031 C 9.355469 59.554688 10.304688 64.082031 11.464844 64.082031 C 12.625 64.082031 13.574219 59.554688 13.648438 53.832031 C 13.648438 53.796875 13.652344 53.765625 13.652344 53.730469 L 13.652344 37.582031 L 9.277344 37.582031 L 9.277344 53.730469 " fill-opacity="1" fill-rule="nonzero"/></g></svg>