<svg xmlns="http://www.w3.org/2000/svg" xmlns:xlink="http://www.w3.org/1999/xlink" width="3000" zoomAndPan="magnify" viewBox="0 0 2250 2250.000011" height="3000" preserveAspectRatio="xMidYMid meet" version="1.0"><defs><clipPath id="5710d5301e"><path d="M 720 179.847656 L 1530.371094 179.847656 L 1530.371094 1260 L 720 1260 Z M 720 179.847656 " clip-rule="nonzero"/></clipPath><clipPath id="fc26f26397"><path d="M 720 989 L 1530.371094 989 L 1530.371094 2069 L 720 2069 Z M 720 989 " clip-rule="nonzero"/></clipPath><clipPath id="93973a2a28"><path d="M 720 719 L 1530.371094 719 L 1530.371094 1530 L 720 1530 Z M 720 719 " clip-rule="nonzero"/></clipPath></defs><g clip-path="url(#5710d5301e)"><path fill="#d86634" d="M 1530.210938 179.867188 L 1530.210938 719.609375 L 720.140625 1259.367188 L 720.140625 719.609375 L 1530.210938 179.867188 " fill-opacity="1" fill-rule="nonzero"/></g><g clip-path="url(#fc26f26397)"><path fill="#adc178" d="M 1530.210938 989.5 L 1530.210938 1529.246094 L 720.140625 2068.988281 L 720.140625 1529.246094 L 1530.210938 989.5 " fill-opacity="1" fill-rule="nonzero"/></g><g clip-path="url(#93973a2a28)"><path fill="#fcd266" d="M 720.140625 1259.367188 L 1530.210938 1529.246094 L 1530.210938 989.5 L 720.140625 719.609375 " fill-opacity="1" fill-rule="nonzero"/></g></svg>